<svg width="635" height="635" viewBox="0 0 635 635" fill="none" xmlns="http://www.w3.org/2000/svg">
<g style="mix-blend-mode:overlay">
<path d="M528.184 553.764L527.594 553.076L528.774 551.698L522.576 544.713L522.969 547.468L523.265 555.929L523.56 556.322L524.937 555.437L525.528 556.126L521.69 559.569L521.1 558.88L522.084 557.7L514.41 548.943L513.131 549.829L512.541 549.14L516.476 545.697L517.066 546.385L515.984 547.566L522.281 554.65L521.887 552.092L521.592 543.434L521.1 542.942L519.624 543.926L519.034 543.237L522.969 539.793L523.56 540.482L522.477 541.663L530.152 550.419L531.431 549.632L532.021 550.321L528.184 553.764Z" fill="black"/>
<path d="M518.542 561.733C518.148 562.225 517.853 562.52 517.558 562.816C517.263 563.111 516.968 563.406 516.673 563.603C515.492 564.587 514.41 565.177 513.426 565.275C512.442 565.374 511.655 565.078 510.966 564.193C510.376 563.406 510.081 562.619 510.179 561.733C510.278 560.848 510.671 560.061 511.262 559.372C510.376 560.061 509.491 560.356 508.605 560.356C507.72 560.258 507.031 559.864 506.441 559.175C505.555 558.093 505.26 557.109 505.457 556.027C505.653 554.945 506.441 553.862 507.818 552.682C508.408 552.19 508.999 551.796 509.491 551.6C509.983 551.304 510.474 551.108 510.77 551.009C511.065 550.911 511.261 550.812 511.36 550.812L513.131 553.567L512.442 554.158L510.474 552.583C509.786 552.682 509.097 553.075 508.212 553.764C507.523 554.256 507.228 554.846 507.228 555.535C507.228 556.224 507.523 556.912 508.113 557.7C508.605 558.29 509.195 558.683 509.884 558.782C510.573 558.88 511.36 558.585 512.245 557.896L513.229 557.109L513.918 557.896L513.032 558.585C512.639 558.88 512.344 559.274 512.049 559.766C511.852 560.258 511.753 560.749 511.753 561.241C511.852 561.733 512.049 562.324 512.442 562.816C512.934 563.504 513.524 563.799 514.115 563.799C514.705 563.799 515.295 563.504 515.984 563.012C516.378 562.619 516.771 562.324 516.968 561.93C517.165 561.537 517.263 561.241 517.263 561.045L516.476 559.47L517.361 558.683L519.329 560.848C519.231 560.946 518.936 561.241 518.542 561.733Z" fill="black"/>
<path d="M505.26 570.982L506.637 570.293L507.228 571.08L505.162 572.556C504.866 572.851 504.374 573.146 503.883 573.54C503.391 573.933 503.095 574.228 502.899 574.425C501.521 575.409 500.341 575.901 499.455 575.901C498.57 575.901 497.783 575.507 497.192 574.622C496.7 573.933 496.405 573.146 496.504 572.359C496.504 571.572 496.897 570.785 497.487 570.195C496.504 570.883 495.618 571.277 494.733 571.178C493.847 571.08 493.06 570.687 492.47 569.801C491.683 568.817 491.486 567.735 491.781 566.554C492.076 565.374 492.962 564.193 494.634 563.012C495.028 562.717 495.323 562.52 495.716 562.324C496.504 561.832 496.996 561.438 497.192 561.34L499.16 559.864L499.652 560.651L498.471 561.733L505.26 570.982ZM495.126 563.701C494.142 564.488 493.552 565.177 493.355 565.964C493.158 566.751 493.454 567.44 493.945 568.227C494.536 569.014 495.126 569.408 495.815 569.506C496.504 569.604 497.291 569.309 498.176 568.62C499.16 567.833 499.849 567.44 500.144 567.145L496.897 562.619C496.504 562.717 496.012 563.111 495.126 563.701ZM499.849 568.719L499.062 569.309C498.373 569.801 497.979 570.391 497.881 571.08C497.783 571.769 497.979 572.457 498.57 573.146C499.062 573.835 499.652 574.228 500.242 574.327C500.833 574.425 501.62 574.13 502.505 573.441C502.899 573.146 503.194 572.851 503.587 572.556L503.883 572.261L500.833 568.03C500.636 568.227 500.341 568.424 499.849 568.719Z" fill="black"/>
<path d="M492.666 581.313L490.994 582.493L480.073 574.229L478.991 574.721L478.499 573.934L482.631 571.179L483.123 571.966L481.942 572.95L484.205 574.819L488.731 571.769L487.944 569.014L486.468 569.703L485.976 568.916L489.715 566.456L490.207 567.243L489.321 568.031L492.666 581.313ZM490.108 579.443L491.387 580.525L490.797 578.853L489.026 572.851L485.091 575.508L490.108 579.443Z" fill="black"/>
<path d="M476.138 576.098C477.318 576.098 478.302 576.393 479.286 577.082C480.27 577.77 481.155 578.656 481.844 579.935C482.533 581.116 482.926 582.296 483.025 583.575C483.123 584.854 482.828 585.937 482.238 586.92C481.647 587.904 480.86 588.79 479.778 589.478C478.991 589.97 477.909 590.462 476.629 590.856L476.039 591.053L474.465 588.101L475.547 587.412L477.22 589.183C477.417 589.183 477.81 589.183 478.204 589.085C478.597 588.986 479.089 588.691 479.679 588.396C480.368 588.003 480.86 587.412 481.155 586.724C481.45 586.035 481.549 585.149 481.352 584.264C481.155 583.379 480.762 582.296 480.171 581.312C479.581 580.329 478.892 579.443 478.105 578.853C477.318 578.262 476.531 577.77 475.744 577.672C474.957 577.574 474.071 577.672 473.284 578.164C472.694 578.459 472.301 578.853 472.104 579.049C471.907 579.246 471.71 579.64 471.612 579.935L471.907 581.903L470.825 582.395L469.841 579.935C470.038 579.837 470.333 579.541 470.726 579.148C471.021 578.754 471.317 578.459 471.71 578.164C472.005 577.869 472.497 577.574 472.989 577.279C473.875 576.491 474.957 576.098 476.138 576.098Z" fill="black"/>
<path d="M466.299 593.807C466.201 594.89 465.905 595.972 465.414 596.759C464.823 597.645 464.135 598.333 463.249 598.727C462.167 599.317 461.085 599.514 460.101 599.416C459.117 599.317 458.133 598.924 457.248 598.235C456.362 597.546 455.575 596.661 454.985 595.382C454.296 594.004 453.902 592.725 453.804 591.545C453.706 590.266 454.001 589.183 454.493 588.2C454.985 587.216 455.772 586.527 456.756 585.937C457.838 585.346 458.92 585.051 460.002 585.15C461.085 585.248 461.97 585.641 462.856 586.232C463.741 586.921 464.528 587.806 465.118 589.085L467.775 587.708L465.217 582.887L463.741 583.477L463.347 582.69L467.873 580.23L468.267 581.017L466.988 581.903L472.497 592.135L473.875 591.643L474.268 592.43L469.841 594.791L469.447 594.004L470.726 593.119L468.365 588.691L465.709 590.167C466.102 591.545 466.299 592.725 466.299 593.807ZM464.528 595.185C464.627 593.906 464.233 592.43 463.249 590.561C462.364 588.987 461.38 587.806 460.298 587.216C459.215 586.625 458.133 586.527 456.952 587.117C455.87 587.708 455.378 588.593 455.28 589.774C455.181 590.954 455.673 592.529 456.657 594.398C457.543 595.972 458.428 597.153 459.51 597.743C460.593 598.432 461.675 598.432 462.659 597.841C463.839 597.349 464.43 596.464 464.528 595.185Z" fill="black"/>
<path d="M445.54 598.53C444.851 598.136 443.867 597.644 442.785 596.956C441.998 596.464 441.506 596.07 441.112 595.873C440.719 595.677 440.424 595.578 440.227 595.578L439.538 595.677L439.145 594.89L441.211 593.906C441.506 593.807 441.899 593.906 442.391 594.201C442.883 594.496 443.67 594.988 444.556 595.677C445.638 596.464 446.425 596.956 447.114 597.349C447.704 597.743 448.196 597.841 448.59 597.644L449.672 597.152L447.409 592.331L445.835 592.823L445.441 592.036L450.065 589.872L450.459 590.757L449.18 591.544L454.099 602.072L455.575 601.678L455.969 602.564L451.443 604.63L451.049 603.548L452.328 602.662L450.065 597.743L448.59 598.431L447.409 604.925L448.885 604.433L449.278 605.318L445.146 607.286L444.752 606.401L446.032 605.614L447.409 598.923C446.917 599.022 446.228 598.825 445.54 598.53Z" fill="black"/>
<path d="M436.39 596.66C437.472 596.857 438.357 597.349 439.145 598.235C439.932 599.022 440.62 600.104 441.211 601.383C441.801 602.662 441.998 603.941 441.899 605.22C441.801 606.401 441.407 607.483 440.817 608.368C440.128 609.254 439.341 609.942 438.161 610.434C436.39 611.222 434.717 611.222 433.34 610.434C431.962 609.647 430.782 608.368 429.995 606.302C429.404 604.925 429.208 603.646 429.306 602.465C429.404 601.186 429.798 600.202 430.388 599.218C431.077 598.333 431.962 597.644 433.045 597.152C434.225 596.66 435.307 596.464 436.39 596.66ZM439.932 606.893C440.128 605.614 439.932 604.138 439.145 602.17C438.456 600.399 437.57 599.218 436.488 598.431C435.406 597.644 434.324 597.546 433.241 598.038C432.159 598.53 431.47 599.317 431.274 600.596C431.077 601.875 431.274 603.449 432.061 605.318C432.749 607.089 433.635 608.27 434.717 608.959C435.701 609.647 436.783 609.844 437.964 609.352C439.046 609.057 439.735 608.172 439.932 606.893Z" fill="black"/>
<path d="M428.912 612.697L430.388 612.402L430.683 613.288L428.322 614.173C427.929 614.272 427.437 614.567 426.846 614.764C426.256 615.059 425.862 615.157 425.666 615.256C424.091 615.846 422.812 616.043 421.927 615.747C421.042 615.452 420.451 614.862 420.058 613.878C419.762 613.091 419.762 612.205 419.959 611.517C420.156 610.828 420.746 610.139 421.533 609.647C420.451 610.041 419.467 610.139 418.582 609.844C417.696 609.549 417.106 608.86 416.811 607.975C416.417 606.794 416.417 605.712 417.008 604.63C417.598 603.548 418.779 602.662 420.746 601.973C421.14 601.777 421.533 601.678 422.025 601.58C422.911 601.285 423.501 601.088 423.698 601.088L426.059 600.202L426.354 601.088L424.977 601.777L428.912 612.697ZM421.14 602.957C419.959 603.351 419.172 603.941 418.877 604.63C418.483 605.318 418.483 606.106 418.877 606.991C419.172 607.877 419.664 608.467 420.254 608.664C420.845 608.86 421.73 608.86 422.714 608.467C423.895 608.073 424.682 607.778 424.977 607.581L423.108 602.367C422.714 602.367 422.124 602.564 421.14 602.957ZM424.387 609.057L423.403 609.451C422.616 609.746 422.025 610.238 421.829 610.828C421.632 611.418 421.632 612.205 421.927 612.993C422.222 613.78 422.616 614.37 423.206 614.567C423.796 614.764 424.583 614.764 425.567 614.37C425.961 614.173 426.453 614.075 426.846 613.78L427.24 613.583L425.469 608.664C425.174 608.762 424.879 608.86 424.387 609.057Z" fill="black"/>
<path d="M401.266 622.93L400.971 622.044L402.446 621.356L399.101 610.238L397.33 610.533L397.035 609.648L402.053 608.172L402.348 609.057L400.872 609.648L404.217 620.864L409.924 619.191L406.579 607.975L404.906 608.27L404.611 607.385L409.629 605.909L409.924 606.794L408.546 607.385L411.891 618.502L413.466 618.306L413.761 619.191L401.266 622.93Z" fill="black"/>
<path d="M393.592 611.32C394.575 611.714 395.461 612.304 396.15 613.288C396.838 614.173 397.33 615.354 397.724 616.731C398.019 618.109 398.117 619.388 397.822 620.568C397.527 621.749 397.035 622.733 396.248 623.52C395.461 624.307 394.477 624.897 393.395 625.192C391.526 625.684 389.951 625.389 388.672 624.504C387.393 623.52 386.508 622.044 385.918 619.88C385.524 618.502 385.524 617.125 385.819 615.944C386.114 614.763 386.606 613.681 387.393 612.894C388.18 612.107 389.164 611.517 390.345 611.222C391.526 610.926 392.608 610.926 393.592 611.32ZM395.658 621.946C396.051 620.765 396.051 619.191 395.559 617.223C395.067 615.452 394.379 614.075 393.493 613.189C392.608 612.304 391.526 612.009 390.345 612.304C389.164 612.599 388.377 613.386 387.984 614.567C387.59 615.747 387.59 617.42 388.082 619.388C388.574 621.257 389.164 622.536 390.148 623.422C391.034 624.307 392.116 624.602 393.296 624.307C394.379 623.815 395.166 623.126 395.658 621.946Z" fill="black"/>
<path d="M379.621 619.093C379.523 617.322 379.621 616.043 380.014 615.059C380.211 614.567 380.408 614.173 380.703 613.878C380.998 613.583 381.392 613.386 381.785 613.288C382.376 613.189 382.769 613.091 383.064 613.091L383.458 614.567C383.163 614.567 382.671 614.665 382.081 614.764C381.884 614.764 381.687 614.862 381.49 615.059C381.293 615.256 381.195 615.452 381.097 615.649C380.408 617.322 380.605 620.372 381.49 624.799L381.785 626.275L383.95 626.078L384.147 626.963L373.521 629.128L373.324 628.242L374.997 627.652L372.734 616.239L370.865 616.436L370.668 615.551L376.276 614.468L376.473 615.354L374.603 615.944L376.866 627.357L380.605 626.57L380.31 624.897C380.014 622.733 379.719 620.765 379.621 619.093Z" fill="black"/>
<path d="M369.881 628.636H371.455L371.553 629.522L362.108 630.997L361.42 628.144L362.502 627.947L363.289 629.62L367.913 629.03L367.126 623.815L364.076 624.307V625.881L363.092 626.078L362.403 621.847L363.387 621.651L363.879 623.225L366.929 622.831L366.044 617.322L360.829 618.306L360.239 620.765L359.058 620.568V617.223L369.29 615.649L369.389 616.535L367.913 616.928L369.881 628.636Z" fill="black"/>
<path d="M354.533 630.997L357.681 630.505L357.878 626.57L359.058 626.471L359.353 631.489L347.744 632.768L346.957 627.849L348.137 627.75L349.22 631.588L352.466 631.292L351.089 619.584L348.433 619.683L348.334 618.797L355.418 618.01L355.516 618.896L353.155 619.388L354.533 630.997Z" fill="black"/>
<path d="M339.283 625.586L340.168 625.488C340.463 625.291 340.758 624.799 340.955 624.209C341.152 623.619 341.546 622.831 341.841 621.946C342.136 621.06 342.431 620.372 342.628 619.88C342.825 619.388 343.021 619.191 343.218 619.191L345.776 618.994L345.875 619.88L345.186 620.175C344.989 620.273 344.792 620.372 344.595 620.765C344.399 621.06 344.104 621.651 343.808 622.339C343.415 623.225 343.12 623.914 342.825 624.406C342.529 624.996 342.234 625.291 341.841 625.586C342.726 625.783 343.415 626.177 343.907 626.767C344.399 627.357 344.694 628.144 344.792 629.128C344.891 630.604 344.497 631.686 343.71 632.277C342.825 632.867 341.644 633.26 339.971 633.359C339.578 633.359 339.184 633.359 338.594 633.359C338.004 633.359 337.512 633.359 337.217 633.359L334.56 633.556L334.462 632.67L336.036 632.375L335.249 620.765L333.478 620.667L333.38 619.781L338.889 619.388L338.987 620.273L337.217 620.569L337.61 625.488L339.283 625.586ZM338.496 632.473C339.086 632.473 339.578 632.473 339.971 632.473C340.955 632.375 341.644 632.178 342.136 631.686C342.628 631.194 342.825 630.506 342.726 629.423C342.628 628.439 342.333 627.652 341.742 627.16C341.152 626.668 340.463 626.472 339.479 626.472C338.496 626.57 337.807 626.57 337.512 626.668L337.905 632.375L338.496 632.473Z" fill="black"/>
<path d="M327.673 632.965L330.92 632.768L331.412 628.833H332.691L332.494 633.85L320.884 634.146L320.491 629.128H321.671L322.36 633.063H325.607L325.213 621.257L322.557 621.159V620.273L329.739 620.076V620.962L327.28 621.257L327.673 632.965Z" fill="black"/>
<path d="M312.03 620.962C313.014 621.552 313.702 622.438 314.194 623.52C314.686 624.602 314.883 625.881 314.883 627.357C314.883 628.734 314.489 630.013 313.899 630.997C313.309 632.08 312.423 632.867 311.439 633.457C310.357 634.047 309.275 634.244 307.996 634.244C307.012 634.244 305.93 634.047 304.552 633.752L303.962 633.654L304.257 630.309H305.536L305.93 632.67C306.127 632.867 306.422 632.965 306.815 633.063C307.209 633.162 307.799 633.26 308.389 633.26C309.176 633.26 309.865 633.063 310.554 632.67C311.144 632.276 311.735 631.588 312.03 630.702C312.423 629.817 312.62 628.734 312.62 627.554C312.62 626.373 312.522 625.291 312.226 624.307C311.931 623.323 311.439 622.536 310.849 621.946C310.259 621.355 309.472 621.06 308.488 621.06C307.799 621.06 307.307 621.06 306.914 621.159C306.52 621.257 306.225 621.454 306.028 621.651L305.241 623.422L304.06 623.225L304.552 620.568C304.847 620.568 305.241 620.47 305.733 620.372C306.225 620.273 306.618 620.175 307.012 620.076C307.406 619.978 307.996 619.978 308.586 619.978C309.865 619.978 311.046 620.273 312.03 620.962Z" fill="black"/>
<path d="M296.288 633.457L296.386 632.572L298.256 632.473L298.944 623.127L297.272 625.291L291.467 631.489V631.981L293.139 632.277L293.041 633.162L287.925 632.768L288.023 631.883L289.499 631.785L290.286 620.175L288.712 619.88L288.81 618.994L294.025 619.388L293.927 620.273L292.254 620.372L291.565 629.817L293.139 627.751L299.141 621.454V620.765L297.37 620.47L297.469 619.585L302.683 619.978L302.585 620.864L301.01 620.962L300.223 632.572L301.699 632.867L301.601 633.752L296.288 633.457Z" fill="black"/>
<path d="M276.02 631.588L276.414 626.668L277.693 626.767L277.791 630.604L281.825 631.194L283.202 619.486L279.956 618.896L280.054 618.01L287.335 618.797L287.236 619.683H285.17L283.891 631.194L285.859 631.686L285.761 632.571L276.02 631.588Z" fill="black"/>
<path d="M272.97 630.014L274.348 630.506L274.249 631.391L269.232 630.604L269.33 629.718H270.904L271.691 624.799L265.198 623.815L264.411 628.735L265.887 629.226L265.788 630.112L260.869 629.325L260.967 628.439H262.443L264.214 616.928L262.738 616.535L262.837 615.649L267.756 616.436L267.657 617.322L266.083 617.223L265.198 622.635L271.691 623.618L272.577 618.207L271.003 617.814L271.101 616.928L276.217 617.715L276.119 618.601L274.643 618.502L272.97 630.014Z" fill="black"/>
<path d="M254.08 627.947L252.113 627.554L250.243 613.977L249.161 613.583L249.358 612.698L254.179 613.681L253.982 614.567L252.408 614.468L252.703 617.322L258.016 618.404L259.393 615.846L257.819 615.354L258.016 614.468L262.345 615.354L262.148 616.239L260.967 616.141L254.08 627.947ZM253.49 624.799L253.588 626.472L254.375 624.897L257.425 619.388L252.801 618.404L253.49 624.799Z" fill="black"/>
<path d="M243.455 616.535C244.143 614.961 244.832 613.78 245.521 612.993C245.914 612.599 246.209 612.403 246.603 612.206C246.996 612.107 247.39 612.107 247.882 612.206C248.472 612.304 248.866 612.501 249.161 612.599L248.964 614.075C248.669 613.977 248.275 613.878 247.587 613.682C247.39 613.583 247.193 613.583 246.996 613.682C246.8 613.78 246.603 613.878 246.406 614.075C245.127 615.256 243.946 618.109 242.766 622.536L242.372 624.012L244.438 624.799L244.242 625.685L233.813 623.028L234.01 622.143L235.78 622.34L238.634 611.025L236.863 610.435L237.059 609.549L242.667 610.927L242.471 611.812L240.601 611.517L237.748 622.733L241.388 623.619L241.782 621.946C242.176 619.978 242.766 618.109 243.455 616.535Z" fill="black"/>
<path d="M214.627 617.322L214.923 616.436L216.694 616.732L220.137 605.614L218.563 604.925L218.858 604.04L224.072 605.712L223.777 606.598L222.105 606.303L218.661 617.42L220.235 618.109L219.94 618.994L214.627 617.322ZM227.418 615.551C225.942 615.059 224.958 614.37 224.368 613.485C223.777 612.599 223.679 611.517 224.072 610.238C224.466 608.861 225.253 607.975 226.335 607.483C227.418 606.991 228.697 606.991 230.172 607.385C230.369 607.483 230.566 607.483 230.763 607.582C230.959 607.68 231.156 607.778 231.353 607.778C232.042 608.074 232.632 608.27 233.124 608.467L235.584 609.254L235.289 610.14L233.714 609.845L230.271 620.962L231.648 621.651L231.353 622.536L226.237 620.962L226.532 620.077L228.401 620.372L229.681 616.24L227.418 615.551ZM231.156 608.861C230.96 608.762 230.664 608.664 230.172 608.566C229.189 608.27 228.303 608.27 227.614 608.664C226.926 609.057 226.434 609.746 226.04 610.828C225.745 611.812 225.745 612.599 226.139 613.288C226.532 613.977 227.221 614.469 228.205 614.764L230.074 615.354L231.943 609.353C231.648 609.058 231.451 608.959 231.156 608.861Z" fill="black"/>
<path d="M206.855 613.19L208.134 613.977L207.839 614.862L203.116 612.993L203.411 612.107L204.986 612.501L206.855 607.778L200.755 605.417L198.886 610.14L200.165 610.927L199.87 611.812L195.245 609.943L195.541 609.057L197.016 609.352L201.247 598.53L199.968 597.841L200.263 596.956L204.986 598.825L204.69 599.711L203.215 599.317L201.247 604.335L207.347 606.696L209.315 601.678L207.839 600.891L208.134 600.006L212.955 601.875L212.66 602.761L211.184 602.367L206.855 613.19Z" fill="black"/>
<path d="M188.85 607.188L186.981 606.302L188.063 592.627L187.079 591.938L187.473 591.151L191.999 593.119L191.605 594.004L190.129 593.512L189.834 596.365L194.852 598.628L196.82 596.464L195.442 595.677L195.836 594.89L199.87 596.66L199.476 597.448L198.295 597.152L188.85 607.188ZM189.047 604.039L188.85 605.712L189.933 604.335L194.065 599.612L189.736 597.644L189.047 604.039Z" fill="black"/>
<path d="M175.273 599.415L176.946 600.596L176.552 601.383L172.125 599.022L173.699 590.364L174.289 588.003L172.715 589.872L166.517 596.07L162.188 593.807L162.581 593.02L164.549 593.807L168.681 582.886L167.304 581.903L167.697 581.115L172.42 583.673L172.026 584.461L170.452 583.87L167.304 591.643L165.926 594.988L167.894 593.02L175.273 585.838L176.355 586.428L174.879 595.775L174.191 599.415L176.158 596.365L180.783 589.282L179.208 588.298L179.602 587.511L183.931 589.773L183.537 590.561L182.062 589.97L175.273 599.415Z" fill="black"/>
<path d="M155.891 590.167L154.12 589.085L156.875 575.705L155.989 574.918L156.481 574.13L160.712 576.688L160.22 577.476L158.744 576.885L158.055 579.738L162.778 582.493L164.942 580.525L163.663 579.542L164.155 578.755L167.992 581.017L167.5 581.805L166.418 581.411L155.891 590.167ZM156.481 587.019L156.088 588.692L157.367 587.511L162.089 583.28L157.957 580.821L156.481 587.019Z" fill="black"/>
<path d="M147.725 583.673L148.807 584.657L148.315 585.444L146.249 584.067C145.856 583.87 145.462 583.575 145.068 583.378C144.478 583.083 143.888 582.69 143.396 582.394C141.92 581.411 141.035 580.427 140.739 579.443C140.444 578.459 140.739 577.475 141.428 576.295C142.018 575.507 142.609 574.819 143.396 574.524C144.183 574.13 145.068 574.032 145.954 574.13C146.839 574.228 147.725 574.622 148.61 575.212C148.906 575.409 149.201 575.606 149.496 575.803C149.791 575.999 149.988 576.196 150.086 576.196L152.349 572.753L150.283 571.178L150.775 570.391L155.891 573.737L155.399 574.524L154.022 573.835L147.725 583.673ZM148.118 576.098C147.331 575.606 146.446 575.409 145.659 575.507C144.872 575.606 143.986 576.295 143.298 577.475C142.707 578.361 142.51 579.148 142.707 579.836C142.904 580.525 143.494 581.214 144.38 581.804C144.675 582.001 145.068 582.198 145.462 582.394C145.659 582.493 145.856 582.591 145.954 582.69L149.594 577.18C149.299 576.983 148.807 576.59 148.118 576.098Z" fill="black"/>
<path d="M143.396 566.358C143.888 567.44 143.986 568.522 143.691 569.703C143.494 570.884 142.904 572.064 142.117 573.245C141.33 574.425 140.346 575.213 139.264 575.704C138.181 576.196 137.001 576.492 135.82 576.295C134.64 576.196 133.557 575.803 132.475 575.016C131.688 574.425 130.802 573.638 129.917 572.654L129.523 572.163L131.59 569.506L132.573 570.195L131.59 572.359C131.688 572.556 131.786 572.851 132.081 573.245C132.377 573.54 132.77 573.933 133.262 574.327C133.951 574.819 134.64 575.016 135.427 575.016C136.214 575.016 137.001 574.721 137.788 574.229C138.575 573.737 139.362 572.95 140.051 571.966C140.739 570.982 141.231 570.096 141.527 569.113C141.822 568.129 141.92 567.243 141.723 566.456C141.527 565.669 141.035 564.98 140.346 564.39C139.854 563.997 139.362 563.8 138.968 563.603C138.575 563.406 138.28 563.406 137.985 563.505L136.312 564.587L135.427 563.8L137.296 561.93C137.493 562.029 137.886 562.226 138.378 562.422C138.87 562.619 139.264 562.718 139.657 562.914C140.051 563.111 140.444 563.406 141.035 563.701C142.215 564.39 143.002 565.276 143.396 566.358Z" fill="black"/>
<path d="M109.158 556.322L109.748 555.634L111.224 556.716L117.422 549.632L114.766 550.321L106.403 551.698L106.108 552.092L107.19 553.371L106.6 554.059L102.762 550.616L103.353 549.927L104.632 550.714L112.306 541.958L111.224 540.777L111.814 540.089L115.749 543.532L115.159 544.221L113.782 543.237L107.485 550.419L109.945 549.73L118.504 548.353L118.996 547.861L117.816 546.582L118.406 545.893L122.341 549.337L121.751 550.026L120.472 549.14L112.798 557.896L113.782 559.077L113.191 559.766L109.158 556.322Z" fill="black"/>
<path d="M100.008 547.763C99.5158 547.468 99.1222 547.172 98.7286 546.976C98.3351 546.779 98.1383 546.484 97.8432 546.287C96.7609 545.205 96.0722 544.221 95.7771 543.237C95.4819 542.253 95.7771 541.466 96.5642 540.679C97.2529 539.99 98.04 539.597 98.9254 539.597C99.8109 539.597 100.598 539.892 101.385 540.384C100.598 539.597 100.106 538.711 100.106 537.826C100.106 536.94 100.401 536.153 100.992 535.464C101.877 534.481 102.959 533.989 104.041 534.087C105.124 534.185 106.304 534.776 107.682 536.055C108.174 536.547 108.666 537.039 108.961 537.531C109.256 538.023 109.551 538.416 109.748 538.711C109.945 539.006 110.043 539.203 110.043 539.302L107.583 541.368L106.895 540.679L108.174 538.613C107.977 537.924 107.485 537.235 106.698 536.547C106.108 535.956 105.419 535.661 104.829 535.76C104.238 535.858 103.451 536.252 102.762 536.94C102.271 537.531 101.975 538.121 101.877 538.81C101.877 539.498 102.271 540.285 103.058 540.974L104.041 541.86L103.353 542.647L102.566 541.86C102.172 541.466 101.779 541.269 101.287 541.072C100.795 540.876 100.303 540.876 99.8109 540.974C99.319 541.072 98.827 541.368 98.3351 541.86C97.7448 542.45 97.548 543.04 97.548 543.63C97.6464 544.221 97.9416 544.811 98.5319 545.401C98.9254 545.795 99.319 546.09 99.7125 546.189C100.106 546.385 100.401 546.385 100.598 546.287L102.074 545.303L102.959 546.09L101.09 548.255C100.893 548.255 100.598 548.058 100.008 547.763Z" fill="black"/>
<path d="M89.1851 535.759L90.0706 537.039L89.3819 537.629L87.6109 535.759C87.3158 535.464 86.9222 535.071 86.4303 534.677C85.9384 534.284 85.6432 533.989 85.4464 533.792C84.2658 532.513 83.6755 531.431 83.4787 530.545C83.3803 529.66 83.6755 528.872 84.4626 528.085C85.1513 527.495 85.84 527.102 86.6271 527.102C87.4142 527.003 88.2012 527.298 88.8899 527.79C88.1029 526.905 87.6109 526.019 87.6109 525.134C87.6109 524.248 87.9061 523.461 88.6932 522.773C89.5787 521.887 90.6609 521.494 91.8415 521.69C93.0222 521.789 94.3012 522.576 95.777 524.15C96.0721 524.445 96.3673 524.839 96.6624 525.134C97.2528 525.822 97.6463 526.314 97.8431 526.413L99.5157 528.184L98.8269 528.774L97.6463 527.79L89.1851 535.759ZM90.7593 530.053L90.0706 529.266C89.4803 528.676 88.89 528.282 88.2013 528.282C87.5126 528.282 86.9222 528.577 86.2335 529.168C85.6432 529.758 85.2497 530.348 85.2497 530.939C85.2497 531.529 85.6432 532.218 86.3319 533.005C86.6271 533.3 87.0206 533.693 87.3158 533.989L87.6109 534.284L91.448 530.742C91.448 530.742 91.1528 530.447 90.7593 530.053ZM95.1866 524.74C94.3012 523.855 93.5141 523.363 92.727 523.264C91.9399 523.166 91.2512 523.461 90.5625 524.15C89.8738 524.839 89.4803 525.429 89.5787 526.118C89.677 526.806 89.9722 527.495 90.7593 528.282C91.6447 529.168 92.1367 529.758 92.4318 530.053L96.4657 526.216C96.2689 526.019 95.8753 525.527 95.1866 524.74Z" fill="black"/>
<path d="M77.3788 524.544L76.0013 522.969L82.79 511.163L82.1997 510.179L82.8884 509.589L86.1351 513.328L85.4464 513.918L84.2658 512.836L82.6916 515.295L86.2335 519.427L88.8899 518.247L88.0045 516.869L88.6932 516.279L91.5464 519.624L90.8576 520.215L89.9722 519.427L77.3788 524.544ZM78.8546 521.69L77.8707 523.166L79.4449 522.379L85.2497 519.919L82.1013 516.279L78.8546 521.69Z" fill="black"/>
<path d="M80.4289 507.425C80.5273 508.507 80.3305 509.688 79.8386 510.671C79.3467 511.655 78.4612 512.737 77.379 513.623C76.2967 514.508 75.1161 515 73.9354 515.197C72.7548 515.394 71.5742 515.296 70.4919 514.902C69.4097 514.508 68.4258 513.721 67.6387 512.738C67.0484 511.95 66.4581 510.967 65.8678 509.786L65.5726 509.196L68.3274 507.228L69.1145 508.212L67.5404 510.081C67.5404 510.278 67.6387 510.671 67.8355 511.065C68.0323 511.458 68.3274 511.95 68.721 512.442C69.2129 513.033 69.8032 513.525 70.5903 513.721C71.3774 513.918 72.1645 513.918 73.05 513.623C73.9354 513.328 74.9193 512.836 75.9032 512.049C76.7886 511.36 77.5757 510.573 78.166 509.688C78.7564 508.802 79.0515 508.015 79.0515 507.13C79.1499 506.244 78.8547 505.457 78.2644 504.768C77.8709 504.276 77.4773 503.883 77.1822 503.686C76.887 503.489 76.5919 503.292 76.1983 503.292L74.2306 503.784L73.6403 502.8L76.0015 501.521C76.1983 501.718 76.4935 502.013 76.887 502.309C77.2806 502.604 77.6741 502.801 77.9693 503.096C78.2644 503.391 78.658 503.784 79.0515 504.276C79.8386 505.26 80.3305 506.342 80.4289 507.425Z" fill="black"/>
<path d="M61.637 499.849C60.5548 499.947 59.4725 499.75 58.5871 499.357C57.7016 498.963 56.9145 498.274 56.3242 497.389C55.6355 496.405 55.2419 495.421 55.2419 494.339C55.2419 493.257 55.4387 492.273 56.029 491.387C56.6193 490.403 57.4064 489.616 58.4887 488.829C59.7677 487.944 60.9483 487.452 62.129 487.157C63.3096 486.96 64.4902 487.058 65.4741 487.452C66.458 487.845 67.3434 488.534 68.0321 489.42C68.7208 490.403 69.1144 491.486 69.2127 492.568C69.3111 493.65 69.016 494.634 68.4257 495.618C67.8354 496.602 67.0483 497.487 65.966 498.274L67.737 500.734L72.1643 497.586L71.3773 496.11L72.1643 495.618L75.1159 499.849L74.3288 500.34L73.2466 499.16L63.8015 505.85L64.4902 507.227L63.7031 507.719L60.7515 503.587L61.5386 503.095L62.6209 504.276L66.7531 501.324L64.9822 498.865C63.8999 499.455 62.7193 499.849 61.637 499.849ZM60.0629 498.373C61.3419 498.373 62.8177 497.782 64.4902 496.503C65.966 495.421 66.9499 494.339 67.4418 493.158C67.9337 491.978 67.8353 490.895 67.1466 489.912C66.4579 488.928 65.4741 488.534 64.2934 488.534C63.1128 488.534 61.637 489.223 59.9645 490.403C58.4887 491.486 57.5048 492.568 57.0129 493.65C56.521 494.831 56.6193 495.815 57.308 496.799C57.8983 497.881 58.8822 498.373 60.0629 498.373Z" fill="black"/>
<path d="M54.4548 479.975C54.75 479.188 55.1436 478.204 55.7339 477.023C56.1274 476.236 56.4226 475.646 56.6193 475.154C56.8161 474.76 56.8161 474.465 56.8161 474.268L56.6193 473.58L57.4064 473.088L58.6855 475.056C58.8822 475.252 58.7838 475.744 58.5871 476.236C58.3903 476.827 57.9967 477.614 57.4064 478.597C56.8161 479.778 56.3242 480.664 56.029 481.352C55.7339 482.041 55.7339 482.533 55.9306 482.828L56.521 483.812L61.0467 480.959L60.358 479.385L61.1451 478.893L63.8999 483.222L63.1128 483.714L62.129 482.533L52.2904 488.731L52.8807 490.109L52.0936 490.601L49.4371 486.37L50.2243 485.878L51.2081 487.059L55.7339 484.206L54.8484 482.828L48.2565 482.533L48.9452 484.009L48.1581 484.501L45.6985 480.565L46.4856 480.073L47.4694 481.156L54.2581 481.647C54.0613 481.352 54.1597 480.664 54.4548 479.975Z" fill="black"/>
<path d="M55.0452 470.628C54.9468 471.71 54.5533 472.694 53.8645 473.58C53.1758 474.465 52.192 475.351 51.0114 476.039C49.7323 476.728 48.5517 477.122 47.3711 477.22C46.1905 477.318 45.1082 477.023 44.1243 476.531C43.1405 476.039 42.3534 475.252 41.7631 474.17C40.7792 472.497 40.5824 470.923 41.1727 469.349C41.7631 467.873 42.9437 466.594 44.813 465.512C46.0921 464.823 47.3711 464.43 48.5517 464.331C49.7323 464.233 50.913 464.528 51.8968 465.02C52.8807 465.512 53.6678 466.299 54.2581 467.381C54.8484 468.464 55.1436 469.546 55.0452 470.628ZM45.305 475.449C46.584 475.547 48.0598 475.055 49.8307 474.072C51.5033 473.186 52.5855 472.104 53.1759 471.022C53.7662 469.939 53.7662 468.759 53.1759 467.775C52.5855 466.693 51.6017 466.201 50.3227 466.102C49.0437 466.004 47.4695 466.496 45.6985 467.48C44.026 468.365 42.9437 469.447 42.3534 470.53C41.7631 471.612 41.7631 472.694 42.3534 473.776C43.1405 474.76 44.1243 475.351 45.305 475.449Z" fill="black"/>
<path d="M38.2212 465.217L38.7131 466.693L37.926 467.086L36.7454 464.823C36.5486 464.43 36.2534 463.938 35.9583 463.446C35.6631 462.954 35.368 462.56 35.2696 462.265C34.4825 460.691 34.1873 459.51 34.2857 458.625C34.3841 457.739 34.9744 457.051 35.8599 456.559C36.647 456.165 37.4341 456.067 38.2212 456.165C39.0082 456.362 39.697 456.756 40.2873 457.444C39.697 456.362 39.5002 455.476 39.697 454.591C39.8937 453.706 40.4841 453.017 41.3695 452.623C42.4518 452.033 43.6324 451.935 44.7146 452.427C45.7969 452.82 46.8791 454.001 47.7646 455.772C47.9614 456.165 48.1582 456.559 48.2566 456.952C48.6501 457.838 48.9452 458.33 49.0436 458.526L50.2243 460.691L49.4372 461.085L48.5517 459.806L38.2212 465.217ZM41.2711 460.199L40.7792 459.314C40.3857 458.527 39.8937 458.035 39.205 457.838C38.6147 457.641 37.8276 457.739 37.0405 458.231C36.2535 458.625 35.7615 459.117 35.6631 459.707C35.5647 460.297 35.6631 461.085 36.155 462.068C36.3518 462.462 36.5486 462.855 36.8438 463.249L37.0405 463.544L41.6647 461.183C41.6647 460.986 41.4679 460.691 41.2711 460.199ZM46.8792 456.264C46.2888 455.181 45.6985 454.493 44.9114 454.198C44.2227 453.902 43.4356 454.001 42.5501 454.493C41.6647 454.886 41.1727 455.476 41.0743 456.067C40.8776 456.657 41.0743 457.543 41.5663 458.526C42.1566 459.609 42.5502 460.396 42.7469 460.691L47.6662 458.133C47.6662 457.838 47.3711 457.247 46.8792 456.264Z" fill="black"/>
<path d="M24.5454 439.144L25.4309 438.751L26.3163 440.128L36.9421 435.406L36.4501 433.733L37.3356 433.34L39.5001 438.161L38.6146 438.554L37.8275 437.177L27.2018 441.899L29.6615 447.409L40.3856 442.686L39.8936 441.014L40.7791 440.62L42.8452 445.441L41.9598 445.835L41.1727 444.556L30.547 449.278L30.9405 450.852L30.055 451.246L24.5454 439.144Z" fill="black"/>
<path d="M35.1712 429.995C34.9745 430.979 34.3842 431.962 33.5971 432.749C32.81 433.537 31.7277 434.225 30.3503 434.717C28.9729 435.209 27.6939 435.406 26.5133 435.307C25.3326 435.209 24.2504 434.816 23.3649 434.127C22.4794 433.438 21.7907 432.553 21.3972 431.47C20.7085 429.699 20.7085 428.027 21.4956 426.65C22.2827 425.272 23.6601 424.19 25.7262 423.403C27.1036 422.911 28.3826 422.714 29.5632 422.812C30.7439 422.911 31.8261 423.304 32.81 423.993C33.6954 424.682 34.3841 425.567 34.7777 426.65C35.2696 427.929 35.368 429.011 35.1712 429.995ZM24.8407 433.34C26.1197 433.635 27.5955 433.34 29.5632 432.651C31.3342 431.962 32.5148 431.175 33.3019 430.093C34.089 429.109 34.2858 428.027 33.7938 426.846C33.4003 425.764 32.5148 425.075 31.2358 424.78C29.9568 424.485 28.3826 424.78 26.5133 425.469C24.7423 426.158 23.4633 426.945 22.7746 428.027C21.9875 429.011 21.8891 430.093 22.381 431.274C22.7746 432.454 23.6601 433.143 24.8407 433.34Z" fill="black"/>
<path d="M25.6278 417.204C27.3003 416.909 28.6777 416.811 29.6616 417.008C30.1535 417.106 30.5471 417.303 30.8422 417.499C31.1374 417.795 31.3342 418.09 31.5309 418.483C31.7277 419.074 31.8261 419.467 31.8261 419.762L30.4487 420.353C30.3503 420.058 30.2519 419.664 30.0551 418.975C29.9568 418.779 29.8584 418.582 29.6616 418.483C29.4648 418.385 29.2681 418.287 28.9729 418.188C27.3003 417.795 24.2503 418.287 19.9214 419.762L18.544 420.254L19.0359 422.32L18.1504 422.616L14.7069 412.383L15.5924 412.088L16.3795 413.662L27.3987 409.924L27.0052 408.153L27.8906 407.858L29.76 413.269L28.8745 413.564L28.0874 411.793L17.0682 415.433L18.2488 419.074L19.823 418.582C22.0859 417.991 23.9552 417.5 25.6278 417.204Z" fill="black"/>
<path d="M14.9037 408.743L15.1005 410.317L14.215 410.612L11.5586 401.463L14.3134 400.38L14.6086 401.364L13.0344 402.348L14.215 406.874L19.2327 405.398L18.3473 402.446L16.7731 402.643L16.4779 401.659L20.6101 400.479L20.9053 401.463L19.4295 402.151L20.2166 405.201L25.5294 403.627L23.8569 398.609L21.2988 398.314V397.134L24.5456 396.74L27.3988 406.677L26.5133 406.972L25.923 405.496L14.9037 408.743Z" fill="black"/>
<path d="M10.673 393.788L11.5585 396.838L15.4939 396.543L15.7891 397.724L10.8698 398.609L8.11499 387.295L12.9359 385.917L13.2311 387.098L9.59078 388.672L10.2795 391.821L21.6923 388.967L21.2004 386.311L22.0858 386.114L23.7584 393.001L22.8729 393.198L22.0858 390.837L10.673 393.788Z" fill="black"/>
<path d="M14.1166 377.948L14.3134 378.834C14.6085 379.129 15.0021 379.326 15.6908 379.522C16.2811 379.719 17.0682 379.916 18.052 380.113C19.0359 380.31 19.7246 380.506 20.2165 380.605C20.7085 380.703 21.0036 380.9 21.0036 381.097L21.4955 383.556L20.6101 383.753L20.3149 383.064C20.2165 382.868 20.0198 382.769 19.7246 382.572C19.3311 382.474 18.8391 382.277 18.052 381.982C17.1665 381.785 16.4779 381.49 15.8875 381.293C15.2972 381.097 14.9037 380.801 14.6085 380.506C14.5101 381.392 14.215 382.081 13.6246 382.769C13.0343 383.36 12.3456 383.753 11.3618 383.95C9.88599 384.245 8.80375 384.048 8.01666 383.261C7.22957 382.474 6.73763 381.293 6.44248 379.719C6.34409 379.326 6.34408 378.932 6.24569 378.342C6.14731 377.752 6.14732 377.26 6.04894 376.964L5.55701 374.308L6.44248 374.111L6.93441 375.587L18.3472 373.324L18.1504 371.553L19.0359 371.356L20.1181 376.768L19.2327 376.964L18.7407 375.193L13.8214 376.177L14.1166 377.948ZM7.13116 378.047C7.13116 378.637 7.22956 379.129 7.32794 379.522C7.52472 380.506 7.81988 381.195 8.4102 381.589C9.00051 381.982 9.68921 382.081 10.7715 381.884C11.7553 381.687 12.444 381.293 12.936 380.703C13.4279 380.113 13.4279 379.326 13.3295 378.342C13.1327 377.358 13.0343 376.768 12.8376 376.374L7.22955 377.456L7.13116 378.047Z" fill="black"/>
<path d="M5.26191 367.421L5.85224 370.569H9.78768L9.98447 371.75L4.96677 372.242L3.1958 360.731L8.11511 359.747L8.31189 360.927L4.57323 362.108L4.96677 365.355L16.5763 363.584L16.3796 360.927L17.265 360.829L18.3473 367.913L17.4618 368.011L16.8715 365.65L5.26191 367.421Z" fill="black"/>
<path d="M15.2972 350.302C14.8053 351.286 14.0182 352.171 13.0343 352.761C12.0504 353.352 10.7714 353.745 9.39403 353.844C8.01662 353.942 6.73759 353.844 5.65534 353.352C4.57309 352.86 3.58924 352.171 2.90054 351.187C2.21184 350.203 1.81828 349.121 1.7199 347.842C1.62151 346.858 1.62152 345.678 1.81829 344.399L1.91668 343.808L5.2618 343.612L5.36019 344.891L2.99893 345.579C2.90055 345.776 2.80214 346.071 2.70376 346.563C2.60537 346.957 2.60537 347.547 2.70376 348.137C2.80214 348.924 3.09733 349.613 3.58926 350.203C4.08119 350.794 4.76987 351.187 5.75373 351.482C6.63921 351.778 7.72147 351.778 9.00049 351.679C10.1811 351.581 11.165 351.286 12.1488 350.892C13.0343 350.499 13.8214 349.908 14.3133 349.22C14.8053 348.531 15.002 347.744 14.9037 346.76C14.8053 346.071 14.7069 345.579 14.6085 345.284C14.5101 344.989 14.3133 344.694 14.0182 344.399L12.1488 343.808V342.628L14.8053 342.824C14.8053 343.12 15.002 343.415 15.1988 343.907C15.3956 344.3 15.494 344.792 15.6907 345.186C15.8875 345.579 15.8875 346.071 15.9859 346.76C15.9859 348.039 15.7891 349.22 15.2972 350.302Z" fill="black"/>
<path d="M0.932848 336.233L1.81832 336.134L2.11349 337.905L11.4602 337.413L9.09888 336.036L2.21186 331.018H1.71993L1.62156 332.691L0.736064 332.789L0.440918 327.673L1.32639 327.575L1.62156 329.05L13.2311 328.46L13.3295 326.886H14.215L14.5101 332.1H13.6246L13.3295 330.428L3.78604 330.92L6.04894 332.199L13.0343 337.315H13.723L13.8214 335.544L14.7069 335.446L15.002 340.66L14.1166 340.758L13.8214 339.184L2.21186 339.775L2.11349 341.25L1.22799 341.349L0.932848 336.233Z" fill="black"/>
<path d="M0.244141 315.965L5.16344 315.768V317.047L1.42479 317.637L1.32639 321.77L13.1327 321.573L13.3295 318.326H14.215L14.3134 325.607H13.4279L13.2311 323.541L1.62157 323.737L1.42479 325.705H0.539317L0.244141 315.965Z" fill="black"/>
<path d="M1.42479 312.718L1.12964 314.194H0.244141L0.440925 309.078H1.32639L1.52318 310.652L6.54087 310.849L6.73763 304.257L1.71993 304.06L1.42479 305.536H0.539317L0.736071 300.519H1.62157L1.81832 301.994L13.4279 302.388L13.6247 300.912H14.5101L14.3134 305.93H13.4279L13.3295 304.356L7.91827 304.159L7.72149 310.751L13.1327 310.947L13.3295 309.373H14.215L14.0182 314.489H13.1327L13.0343 313.014L1.42479 312.718Z" fill="black"/>
<path d="M1.03113 293.73L1.22788 291.664L14.4116 288.122L14.7068 286.941L15.5923 287.04L15.1987 291.959L14.3132 291.86L14.2149 290.286L11.3617 290.975L10.9681 296.386L13.6245 297.468L13.9197 295.894L14.8052 295.993L14.51 300.42L13.6245 300.322L13.5261 299.141L1.03113 293.73ZM4.17946 292.844L2.50692 293.139L4.17946 293.73L9.98427 296.091L10.3778 291.369L4.17946 292.844Z" fill="black"/>
<path d="M11.165 281.727C12.8376 282.218 14.1166 282.71 14.9037 283.301C15.2973 283.596 15.5924 283.989 15.7892 284.285C15.986 284.678 15.9859 285.072 15.9859 285.465C15.8876 286.056 15.7892 286.449 15.6908 286.744L14.215 286.646C14.3134 286.351 14.3134 285.859 14.4118 285.268C14.4118 285.072 14.4118 284.777 14.3134 284.678C14.215 284.481 14.0182 284.285 13.8215 284.088C12.4441 283.006 9.49248 282.12 4.96672 281.628L3.49092 281.431L2.99899 283.498L2.11353 283.399L3.39253 272.675L4.278 272.773V274.544L15.7892 275.922L16.1827 274.151L17.0682 274.249L16.3795 279.956L15.494 279.857V277.889L3.98285 276.512L3.49092 280.251L5.16347 280.448C7.52474 280.939 9.49246 281.235 11.165 281.727Z" fill="black"/>
<path d="M9.98433 265.69C10.2795 264.214 10.7714 263.132 11.6569 262.443C12.5423 261.754 13.5262 261.557 14.8052 261.754C16.1826 262.049 17.2649 262.64 17.8552 263.722C18.4455 264.706 18.6423 265.985 18.3471 267.461C18.3471 267.657 18.2488 267.854 18.2488 268.051C18.1504 268.248 18.1504 268.444 18.052 268.74C17.8552 269.428 17.7568 270.019 17.6584 270.609L17.2649 273.069L16.3794 272.872L16.4778 271.298L4.96663 269.232L4.4747 270.707L3.58923 270.511L4.4747 265.296L5.36017 265.493L5.26178 267.362L9.4924 268.149L9.98433 265.69ZM6.63918 253.195L7.52468 253.391L7.42628 255.162L18.8391 257.228L19.331 255.556L20.2165 255.753L19.2326 261.164L18.3471 260.967L18.4455 259.196L7.03275 257.13L6.54082 258.803L5.65532 258.606L6.63918 253.195ZM17.1665 268.641C17.2649 268.444 17.2649 268.051 17.3633 267.657C17.5601 266.673 17.3633 265.788 16.8714 265.099C16.3794 264.411 15.5923 264.017 14.5101 263.82C13.5262 263.624 12.6407 263.82 12.0504 264.214C11.4601 264.706 11.0666 265.394 10.8698 266.378L10.5746 268.248L16.773 269.33C16.9697 269.133 17.0681 268.838 17.1665 268.641Z" fill="black"/>
<path d="M9.68929 245.029L9.09897 246.406L8.2135 246.209L9.49254 241.29L10.378 241.487L10.1812 243.061L15.1005 244.241L16.6747 237.846L11.7554 236.666L11.1651 238.043L10.2796 237.846L11.4603 233.025L12.3457 233.222L12.2473 234.698L23.5617 237.551L24.1521 236.174L25.0375 236.371L23.8569 241.29L22.9714 241.093L23.1682 239.519L17.8554 238.24L16.2812 244.635L21.594 245.914L22.1843 244.34L23.0698 244.537L21.7908 249.554L20.9053 249.357L21.1021 247.882L9.68929 245.029Z" fill="black"/>
<path d="M13.4279 226.434L14.0181 224.466L27.6938 223.876L28.1858 222.793L29.0712 223.089L27.5954 227.811L26.71 227.516L27.0051 225.942H24.0535L22.4794 231.156L24.8406 232.829L25.5293 231.353L26.4148 231.648L25.1358 235.879L24.2503 235.584L24.4471 234.403L13.4279 226.434ZM16.5762 226.237H14.9036L16.3794 227.122L21.5939 230.664L22.9713 226.139L16.5762 226.237Z" fill="black"/>
<path d="M19.4294 211.872L18.5439 213.742L17.6584 213.447L19.4294 208.822L28.1858 209.314L30.6454 209.61L28.5793 208.232L21.5939 202.821L23.3648 198.197L24.2503 198.492L23.7584 200.46L35.1712 203.116L35.9583 201.64L36.8437 201.935L34.876 207.052L33.9905 206.756L34.3841 205.084L26.218 202.919L22.6761 202.034L24.939 203.706L33.0067 210.101L32.6131 211.282L23.1681 210.987L19.4294 210.79L22.6761 212.364L30.2519 216.005L31.039 214.332L31.9244 214.627L30.2519 219.153L29.3664 218.858L29.7599 217.284L19.4294 211.872Z" fill="black"/>
<path d="M26.1196 191.605L26.9067 189.736L40.5824 190.719L41.1727 189.736L42.0582 190.129L40.0904 194.655L39.205 194.261L39.6969 192.786L36.8437 192.49L34.6792 197.508L36.8437 199.377L37.6308 198L38.5163 198.394L36.7453 202.427L35.8598 202.034L36.155 200.853L26.1196 191.605ZM29.268 191.703L27.5954 191.507L28.9728 192.589L33.6953 196.721L35.5647 192.392L29.268 191.703Z" fill="black"/>
<path d="M31.531 182.652L30.6455 183.833L29.76 183.439L30.8423 181.176C31.039 180.783 31.2358 180.389 31.3342 179.996C31.6294 179.405 31.8261 178.815 32.1213 178.225C32.9084 176.65 33.7938 175.568 34.6793 175.175C35.5648 174.781 36.647 174.879 37.8277 175.47C38.7132 175.863 39.4019 176.454 39.8938 177.241C40.3857 178.028 40.5825 178.815 40.5825 179.7C40.5825 180.586 40.3857 181.57 39.8938 182.455C39.697 182.75 39.5986 183.144 39.4019 183.439C39.2051 183.734 39.1067 183.931 39.1067 184.029L42.8454 185.8L44.1244 183.636L44.9115 184.029L42.2551 189.539L41.468 189.145L41.9599 187.67L31.531 182.652ZM39.1067 182.062C39.5002 181.176 39.5986 180.291 39.3035 179.504C39.0083 178.717 38.3196 178.028 37.0406 177.339C36.0567 176.847 35.2697 176.749 34.581 177.044C33.8922 177.339 33.4003 177.929 32.81 179.012C32.6132 179.405 32.5148 179.799 32.3181 180.192C32.2197 180.487 32.1213 180.586 32.1213 180.684L38.1228 183.537C38.418 183.341 38.7131 182.849 39.1067 182.062Z" fill="black"/>
<path d="M48.2566 176.158C47.2727 176.749 46.1904 176.945 45.0098 176.945C43.8292 176.847 42.6485 176.552 41.3695 175.863C40.1889 175.174 39.205 174.387 38.5163 173.305C37.8276 172.321 37.5325 171.141 37.4341 169.96C37.4341 168.779 37.6308 167.599 38.3196 166.517C38.8115 165.631 39.4018 164.746 40.3857 163.663L40.7792 163.171L43.6324 164.942L43.0421 166.025L40.6808 165.336C40.484 165.434 40.1889 165.631 39.8937 165.926C39.5986 166.221 39.3034 166.713 39.0083 167.205C38.6147 167.894 38.5163 168.681 38.6147 169.37C38.7131 170.157 39.1066 170.846 39.6969 171.633C40.2873 172.321 41.1727 173.01 42.255 173.6C43.2389 174.191 44.3211 174.486 45.305 174.683C46.2888 174.879 47.1743 174.781 47.9614 174.486C48.7485 174.191 49.3388 173.6 49.8307 172.813C50.1259 172.223 50.3226 171.731 50.421 171.436C50.5194 171.141 50.5194 170.747 50.421 170.452L49.142 168.878L49.8307 167.894L51.9952 169.566C51.8968 169.763 51.7985 170.157 51.7001 170.747C51.6017 171.239 51.5033 171.633 51.4049 172.026C51.3065 172.42 51.1098 172.912 50.8146 173.502C50.0275 174.683 49.142 175.568 48.2566 176.158Z" fill="black"/>
<path d="M51.3066 144.773L52.0937 145.265L51.3066 146.938L59.1775 152.054L58.0952 149.496L55.5372 141.428L55.1436 141.133L54.0614 142.412L53.2743 141.92L56.1275 137.591L56.9146 138.083L56.3242 139.46L66.0645 145.856L67.0484 144.675L67.8354 145.167L64.9822 149.496L64.1951 149.004L64.9822 147.528L57.013 142.314L58.0952 144.675L60.6533 152.939L61.2436 153.333L62.3258 151.955L63.1129 152.447L60.2597 156.875L59.4726 156.383L60.1613 155.005L50.4211 148.61L49.4372 149.693L48.6501 149.201L51.3066 144.773Z" fill="black"/>
<path d="M58.5872 134.541C58.7839 134.049 58.9807 133.557 59.1775 133.164C59.3742 132.77 59.571 132.475 59.7678 132.18C60.6532 130.901 61.6371 130.114 62.5226 129.72C63.4081 129.327 64.2935 129.524 65.179 130.114C65.9661 130.704 66.458 131.393 66.5564 132.278C66.6548 133.164 66.5564 133.951 66.1629 134.836C66.8516 133.951 67.6387 133.361 68.5242 133.262C69.4096 133.066 70.1967 133.262 70.9838 133.853C72.0661 134.64 72.6564 135.624 72.7547 136.706C72.8531 137.788 72.3612 139.067 71.279 140.543C70.8854 141.133 70.3935 141.625 69.9999 142.019C69.6064 142.412 69.2128 142.707 68.9177 142.904C68.6225 143.101 68.4258 143.199 68.4258 143.298L65.9661 141.133L66.5564 140.346L68.8193 141.33C69.4096 141.035 70.0983 140.444 70.6886 139.559C71.1806 138.87 71.3773 138.182 71.1806 137.591C70.9838 136.903 70.5902 136.312 69.7048 135.722C69.1145 135.23 68.4257 135.033 67.737 135.132C67.0483 135.23 66.3596 135.722 65.6709 136.607L64.8839 137.69L63.9984 137.099L64.5887 136.214C64.8839 135.82 65.0806 135.328 65.179 134.836C65.2774 134.345 65.2774 133.853 65.0806 133.361C64.8839 132.869 64.4903 132.475 63.9984 132.082C63.3097 131.59 62.7194 131.393 62.1291 131.59C61.5387 131.786 61.0468 132.18 60.5549 132.77C60.2597 133.262 60.0629 133.656 59.8662 134.049C59.6694 134.443 59.7678 134.738 59.8662 134.935L61.0468 136.214L60.3581 137.198L57.8984 135.624C58.0952 135.427 58.292 135.033 58.5872 134.541Z" fill="black"/>
<path d="M68.9177 122.144L67.737 123.227L67.0483 122.636L68.6225 120.669C68.9177 120.373 69.2128 119.882 69.6064 119.39C69.9015 118.898 70.1967 118.504 70.3935 118.307C71.4757 116.93 72.4596 116.143 73.345 115.946C74.2305 115.749 75.116 115.946 75.9031 116.536C76.5918 117.127 76.9853 117.815 77.1821 118.603C77.3789 119.39 77.1821 120.177 76.7886 120.964C77.4773 119.98 78.3627 119.488 79.2482 119.291C80.1337 119.094 81.0192 119.39 81.7079 119.98C82.6917 120.767 83.1837 121.751 83.282 122.932C83.3804 124.112 82.6917 125.49 81.4127 127.162C81.1175 127.556 80.8224 127.851 80.5272 128.146C79.8385 128.835 79.5434 129.327 79.3466 129.425L77.7724 131.393L77.0837 130.802L77.8708 129.523L68.9177 122.144ZM74.7224 122.932L75.4112 122.144C76.0015 121.456 76.1982 120.767 76.0998 120.177C76.0015 119.586 75.6079 118.898 74.9192 118.307C74.2305 117.717 73.6402 117.52 73.0499 117.619C72.4596 117.717 71.7709 118.209 71.1805 118.996C70.8854 119.39 70.5902 119.685 70.3935 120.078L70.1967 120.373L74.2305 123.62C74.1321 123.62 74.4273 123.325 74.7224 122.932ZM80.6256 126.473C81.4127 125.49 81.8062 124.604 81.7079 123.817C81.6095 123.03 81.2159 122.341 80.5272 121.751C79.7401 121.161 79.0514 120.865 78.4611 120.964C77.7724 121.062 77.1821 121.554 76.4934 122.44C75.7063 123.423 75.2144 124.014 75.0176 124.309L79.3466 127.851C79.5434 127.752 79.9369 127.261 80.6256 126.473Z" fill="black"/>
<path d="M78.3628 108.862L79.7402 107.288L92.432 112.404L93.3175 111.617L94.0062 112.207L90.7594 115.946L90.0707 115.356L90.9562 114.077L88.2998 112.896L84.6595 117.028L86.1353 119.488L87.3159 118.406L88.0046 118.996L85.053 122.341L84.3643 121.751L84.9546 120.767L78.3628 108.862ZM81.4127 109.945L79.8386 109.256L80.8224 110.732L84.0692 116.143L87.2175 112.601L81.4127 109.945Z" fill="black"/>
<path d="M95.6787 109.453C94.5964 109.748 93.5142 109.65 92.3335 109.354C91.2513 108.961 90.1691 108.272 89.0868 107.288C88.1029 106.304 87.4142 105.222 87.0207 104.14C86.6272 103.058 86.6271 101.779 86.9223 100.696C87.2175 99.5157 87.8078 98.5319 88.6933 97.548C89.382 96.8593 90.2674 96.1706 91.4481 95.3835L91.94 94.99L94.2029 97.4496L93.3174 98.3351L91.2513 97.0561C91.0545 97.0561 90.7594 97.2529 90.3658 97.4496C89.9723 97.6464 89.5787 98.04 89.1852 98.4335C88.5949 99.0238 88.2997 99.7125 88.2013 100.401C88.103 101.188 88.2013 101.975 88.5949 102.861C88.9884 103.746 89.6771 104.632 90.5626 105.419C91.4481 106.206 92.3335 106.895 93.219 107.288C94.1045 107.682 94.99 107.879 95.8754 107.879C96.7609 107.879 97.4496 107.485 98.1383 106.796C98.6302 106.304 98.9254 105.911 99.0238 105.616C99.2206 105.321 99.319 104.927 99.319 104.632L98.5319 102.762L99.4173 101.975L100.992 104.14C100.795 104.337 100.598 104.632 100.401 105.124C100.204 105.517 100.008 105.911 99.7125 106.304C99.5157 106.698 99.1222 107.091 98.7286 107.485C97.8432 108.567 96.7609 109.158 95.6787 109.453Z" fill="black"/>
<path d="M100.5 89.7755C100.303 88.6932 100.303 87.611 100.598 86.6271C100.893 85.6433 101.385 84.8562 102.172 84.0691C103.058 83.1836 104.041 82.6917 105.025 82.4949C106.009 82.2981 107.091 82.3965 108.075 82.8885C109.059 83.3804 110.043 84.0691 111.027 84.9546C112.109 86.0368 112.798 87.2174 113.191 88.3981C113.585 89.5787 113.683 90.661 113.388 91.7432C113.093 92.8255 112.601 93.7109 111.814 94.498C110.928 95.3835 109.945 95.8754 108.862 96.0722C107.879 96.269 106.796 96.1706 105.812 95.777C104.829 95.3835 103.746 94.6948 102.861 93.7109L100.696 95.777L104.435 99.7125L105.714 98.7286L106.304 99.4173L102.566 102.959L101.975 102.271L102.959 101.09L94.9899 92.6287L93.7109 93.5142L93.0222 92.8255L96.6625 89.3819L97.3512 90.0707L96.3673 91.2513L99.8109 94.8916L102.074 92.8255C101.287 91.94 100.795 90.9561 100.5 89.7755ZM101.877 88.1029C102.074 89.382 102.861 90.7594 104.337 92.2351C105.616 93.5142 106.796 94.3996 108.075 94.6948C109.354 94.99 110.338 94.7932 111.322 93.9077C112.208 93.1206 112.503 92.0384 112.208 90.8577C111.912 89.6771 111.125 88.2997 109.748 86.8239C108.469 85.5449 107.288 84.6594 106.108 84.3643C104.927 84.0691 103.845 84.2659 102.959 85.053C102.074 85.84 101.68 86.8239 101.877 88.1029Z" fill="black"/>
<path d="M119.291 79.8386C120.078 80.0354 121.062 80.3306 122.341 80.6257C123.227 80.9209 123.817 81.1177 124.309 81.2161C124.801 81.3144 124.998 81.3144 125.195 81.2161L125.883 80.9209L126.474 81.6096L124.703 83.0854C124.506 83.2822 124.112 83.2822 123.522 83.1838C122.932 83.0854 122.145 82.7902 121.062 82.3967C119.882 81.9048 118.898 81.6096 118.209 81.4128C117.52 81.2161 117.028 81.3144 116.733 81.5112L115.848 82.2983L119.291 86.3321L120.669 85.4466L121.259 86.1354L117.324 89.4805L116.733 88.7918L117.816 87.7095L110.338 78.8548L109.059 79.6419L108.469 78.9532L112.306 75.7064L112.896 76.3951L111.814 77.5758L115.258 81.708L116.438 80.6257L115.848 74.0339L114.47 74.9193L113.88 74.2306L117.422 71.2791L118.012 71.9678L117.028 73.05L117.422 79.8386C117.816 79.7403 118.504 79.7403 119.291 79.8386Z" fill="black"/>
<path d="M128.638 79.15C127.556 79.2483 126.572 78.9532 125.588 78.3629C124.604 77.7725 123.62 76.9855 122.735 75.8048C121.849 74.6242 121.259 73.542 121.062 72.3613C120.865 71.1807 120.865 70.0984 121.259 69.0162C121.653 67.9339 122.341 67.0485 123.227 66.3598C124.801 65.1791 126.277 64.7856 127.851 65.0807C129.425 65.3759 130.901 66.4582 132.18 68.1307C133.065 69.3113 133.656 70.492 133.852 71.6726C134.049 72.8532 134.049 74.0339 133.656 75.1161C133.262 76.1984 132.573 77.0839 131.688 77.7726C130.704 78.658 129.72 79.0516 128.638 79.15ZM122.538 70.2952C122.636 71.5742 123.325 72.9516 124.506 74.6242C125.686 76.1 126.867 77.0839 128.048 77.4774C129.228 77.9693 130.311 77.7726 131.294 76.9855C132.278 76.2968 132.672 75.2145 132.573 73.9355C132.475 72.6565 131.786 71.1807 130.507 69.6065C129.327 68.1307 128.146 67.1468 126.965 66.7533C125.785 66.3598 124.703 66.4581 123.719 67.2452C122.833 68.0323 122.44 69.0162 122.538 70.2952Z" fill="black"/>
<path d="M131.59 61.7355L130.212 62.4242L129.72 61.6371L131.786 60.1613C132.18 59.9645 132.573 59.571 133.065 59.1774C133.557 58.7839 133.852 58.4887 134.148 58.3903C135.525 57.4065 136.706 56.9146 137.591 56.9146C138.477 56.9146 139.264 57.3081 139.854 58.1936C140.346 58.8823 140.641 59.6694 140.543 60.4564C140.444 61.2435 140.149 62.0306 139.559 62.6209C140.543 61.9322 141.428 61.6371 142.314 61.6371C143.199 61.6371 143.986 62.129 144.577 63.0145C145.265 63.9983 145.56 65.179 145.265 66.2612C144.97 67.4419 143.986 68.6225 142.314 69.8031C141.92 70.0983 141.625 70.2951 141.231 70.4918C140.444 70.9838 139.952 71.3773 139.756 71.4757L137.689 72.9515L137.198 72.2628L138.378 71.1805L131.59 61.7355ZM137.001 64.0967L137.886 63.5064C138.575 63.0145 138.969 62.4242 139.067 61.7355C139.165 61.0468 138.969 60.3581 138.378 59.6694C137.886 58.9807 137.296 58.5871 136.706 58.4887C136.115 58.3903 135.328 58.6855 134.443 59.2758C134.049 59.571 133.754 59.8661 133.361 60.1613L133.065 60.4564L136.115 64.6871C136.214 64.5887 136.509 64.3919 137.001 64.0967ZM141.625 69.1144C142.609 68.4257 143.199 67.6386 143.396 66.8515C143.593 66.0645 143.396 65.3758 142.806 64.4903C142.215 63.7032 141.625 63.3096 141.035 63.2113C140.346 63.1129 139.559 63.408 138.673 64.0967C137.591 64.7854 137.001 65.2774 136.706 65.4741L139.952 69.9999C140.248 70.0983 140.838 69.7047 141.625 69.1144Z" fill="black"/>
<path d="M155.497 44.6162L155.989 45.4033L154.809 46.4855L160.909 56.3242L162.483 55.5371L162.975 56.3242L158.547 59.079L158.055 58.2919L159.236 57.308L153.038 47.371L147.922 50.5194L154.12 60.4564L155.694 59.6693L156.186 60.4564L151.759 63.2112L151.267 62.4241L152.447 61.4402L146.347 51.6016L144.872 52.2903L144.38 51.5032L155.497 44.6162Z" fill="black"/>
<path d="M166.025 53.7663C164.943 53.6679 163.959 53.2743 163.073 52.5856C162.188 51.8969 161.401 50.9131 160.712 49.634C160.023 48.355 159.63 47.1744 159.531 45.8954C159.433 44.7147 159.728 43.6325 160.22 42.6486C160.712 41.6648 161.499 40.8777 162.581 40.2874C164.254 39.3035 165.828 39.1067 167.402 39.697C168.878 40.2874 170.157 41.468 171.239 43.4357C171.928 44.7147 172.321 45.9938 172.42 47.1744C172.518 48.4534 172.223 49.5357 171.633 50.5195C171.042 51.5034 170.255 52.2905 169.272 52.8808C168.091 53.5695 167.107 53.8646 166.025 53.7663ZM161.204 44.026C161.105 45.3051 161.597 46.7808 162.581 48.5518C163.467 50.2244 164.549 51.3066 165.631 51.8969C166.713 52.4872 167.894 52.4872 168.878 51.8969C169.96 51.3066 170.452 50.4211 170.551 49.0437C170.649 47.7647 170.157 46.1905 169.173 44.4196C168.288 42.747 167.205 41.6648 166.123 41.0745C165.041 40.4841 163.959 40.4841 162.876 41.0745C161.893 41.8615 161.302 42.8454 161.204 44.026Z" fill="black"/>
<path d="M177.438 42.55C178.028 44.2226 178.225 45.5016 178.126 46.5838C178.126 47.0758 177.93 47.5677 177.733 47.8628C177.536 48.158 177.241 48.4532 176.847 48.6499C176.355 48.9451 175.863 49.0435 175.667 49.1419L174.88 47.8628C175.175 47.7645 175.568 47.5677 176.159 47.2725C176.355 47.1741 176.552 47.0758 176.65 46.879C176.749 46.6822 176.847 46.4854 176.847 46.1903C177.044 44.4193 176.06 41.5661 173.994 37.4339L173.305 36.1549L171.239 36.942L170.846 36.1549L180.488 31.334L180.881 32.1211L179.405 33.1049L184.62 43.5339L186.391 42.8452L186.784 43.6322L181.668 46.1903L181.275 45.4032L182.947 44.3209L177.733 33.892L174.388 35.5646L175.175 37.0404C176.06 39.1065 176.847 40.9758 177.438 42.55Z" fill="black"/>
<path d="M184.226 30.7438L182.75 31.1373L182.357 30.2519L191.015 26.3164L192.491 28.8744L191.507 29.268L190.228 27.7922L185.997 29.5631L188.162 34.3841L191.015 33.0067L190.621 31.5309L191.605 31.1373L193.376 35.0728L192.392 35.4663L191.507 34.0889L188.654 35.3679L190.916 40.484L195.639 38.1227L195.541 35.5647L196.721 35.4663L197.607 38.6147L188.162 42.8453L187.768 42.0582L189.145 41.2711L184.226 30.7438Z" fill="black"/>
<path d="M198.492 24.4472L195.541 25.7262L196.426 29.5632L195.245 30.0552L193.671 25.3327L204.494 21.0037L206.56 25.5294L205.478 25.923L203.411 22.4795L200.362 23.5617L204.789 34.4826L207.347 33.6955L207.642 34.5809L201.05 37.2374L200.755 36.3519L202.92 35.2696L198.492 24.4472Z" fill="black"/>
<path d="M214.627 25.6277L213.742 25.9228C213.545 26.218 213.348 26.7099 213.25 27.3003C213.152 27.989 213.053 28.776 213.053 29.7599C212.955 30.7438 212.955 31.4325 212.857 31.9244C212.758 32.4163 212.66 32.7115 212.463 32.8099L210.102 33.6954L209.807 32.8099L210.397 32.4163C210.594 32.3179 210.692 32.1212 210.79 31.7276C210.889 31.3341 210.987 30.7438 211.086 29.9567C211.184 29.0712 211.381 28.2841 211.479 27.6938C211.676 27.1035 211.873 26.6116 212.168 26.3164C211.282 26.4148 210.495 26.218 209.807 25.7261C209.118 25.2341 208.626 24.5454 208.331 23.66C207.839 22.2826 207.937 21.1019 208.527 20.3148C209.216 19.4294 210.298 18.7407 211.873 18.2487C212.168 18.1503 212.66 17.9536 213.25 17.8552C213.84 17.6584 214.234 17.56 214.529 17.4616L217.087 16.5762L217.382 17.4616L216.005 18.1503L219.842 28.9728L221.514 28.5793L221.81 29.4647L216.595 31.3341L216.3 30.4486L217.973 29.6615L216.3 24.939L214.627 25.6277ZM213.545 18.6423C212.955 18.7407 212.561 18.9374 212.069 19.0358C211.184 19.331 210.495 19.8229 210.2 20.3148C209.807 20.9052 209.807 21.6922 210.2 22.6761C210.495 23.66 211.086 24.2503 211.676 24.6438C212.365 24.939 213.152 24.939 214.037 24.6438C215.021 24.3487 215.611 24.0535 215.906 23.9551L214.037 18.5439L213.545 18.6423Z" fill="black"/>
<path d="M223.777 15.3957L220.727 16.4779L221.219 20.4134L220.039 20.8069L218.858 15.8876L229.976 12.4441L231.648 17.1666L230.566 17.4618L228.795 13.9199L225.647 14.8054L229.09 26.1198L231.648 25.5294L231.943 26.4149L225.155 28.481L224.86 27.5956L227.122 26.7101L223.777 15.3957Z" fill="black"/>
<path d="M242.176 22.8729C241.093 22.4794 240.208 21.8891 239.421 21.0036C238.634 20.1181 238.142 18.9375 237.748 17.5601C237.453 16.1827 237.453 14.9036 237.748 13.723C238.043 12.5424 238.634 11.5585 239.519 10.7714C240.405 9.98434 241.389 9.39403 242.668 9.09887C243.553 8.9021 244.734 8.70532 246.111 8.70532H246.701L247.292 12.0505L246.111 12.3456L245.127 10.1811C244.93 10.0827 244.635 9.98434 244.143 9.98434C243.651 9.98434 243.159 10.0827 242.569 10.1811C241.782 10.3779 241.192 10.7714 240.7 11.3617C240.208 11.9521 239.913 12.7392 239.716 13.6246C239.618 14.6085 239.618 15.5923 239.913 16.8714C240.208 18.052 240.601 19.0359 241.093 19.8229C241.585 20.61 242.274 21.2987 243.061 21.6923C243.848 22.0858 244.635 22.1842 245.521 21.9874C246.209 21.7907 246.603 21.6923 246.996 21.4955C247.292 21.2987 247.587 21.102 247.784 20.8068L248.079 18.8391L249.259 18.7407L249.456 21.3971C249.161 21.4955 248.866 21.6923 248.374 21.8891C247.98 22.0858 247.587 22.381 247.193 22.4794C246.8 22.6761 246.308 22.7745 245.717 22.9713C244.438 23.2665 243.258 23.2665 242.176 22.8729Z" fill="black"/>
<path d="M253.982 6.63912L254.179 7.52459L252.408 8.11492L254.179 17.3632L255.261 14.8052L259.295 7.32782L259.196 6.83589L257.524 6.93428L257.327 6.0488L262.345 5.06494L262.541 5.95042L261.164 6.44235L263.427 17.8551L265.001 17.7567L265.198 18.6422L260.082 19.6261L259.885 18.7406L261.459 18.2487L259.59 8.902L258.606 11.2633L254.474 18.839L254.572 19.5277L256.343 19.3309L256.54 20.2164L251.325 21.2003L251.129 20.3148L252.604 19.8229L250.342 8.41007L248.866 8.50845L248.669 7.62299L253.982 6.63912Z" fill="black"/>
<path d="M274.053 3.19556L274.938 8.01647L273.659 8.21325L272.577 4.57296L268.445 5.06489L270.216 16.7728L273.462 16.4777L273.561 17.3631L266.28 18.4454L266.182 17.5599L268.15 17.068L266.379 5.65521H264.411L264.312 4.76973L274.053 3.19556Z" fill="black"/>
<path d="M277.496 3.88445L276.02 3.78607L275.922 2.90059L280.94 2.31028L281.038 3.19575L279.464 3.58929L280.054 8.60699L286.548 7.91828L285.957 2.90059L284.383 2.80221L284.285 1.91673L289.302 1.32642L289.401 2.21189L287.925 2.60543L289.204 14.1166H290.68L290.778 15.0021L285.76 15.5924L285.662 14.7069L287.138 14.3134L286.548 8.90214L280.054 9.59085L280.644 15.0021H282.317L282.415 15.8876L277.299 16.4779L277.201 15.5924L278.677 15.1989L277.496 3.88445Z" fill="black"/>
<path d="M296.189 0.932857L298.256 0.834473L303.568 13.4279L304.749 13.5263L304.847 14.4117L299.928 14.7069L299.83 13.8214L301.404 13.5263L300.322 10.7715L294.91 11.0666L294.222 13.9198L295.796 14.0182L295.894 14.9037L291.467 15.1988L291.369 14.3134L292.549 14.0182L296.189 0.932857ZM297.567 3.78606L296.977 2.21188L296.681 3.88444L295.206 9.98438L299.928 9.68922L297.567 3.78606Z" fill="black"/>
<path d="M309.472 9.19728C309.275 10.8698 308.881 12.2472 308.389 13.1327C308.094 13.6247 307.799 13.9198 307.504 14.1166C307.209 14.3134 306.815 14.4117 306.323 14.4117C305.733 14.4117 305.241 14.4117 304.946 14.3134L304.749 12.8376C305.044 12.8376 305.536 12.8376 306.126 12.8376C306.323 12.8376 306.52 12.7392 306.717 12.6408C306.914 12.5424 307.012 12.3456 307.209 12.0505C308.094 10.5747 308.586 7.52471 308.488 2.90057V1.42477H306.422V0.440914L317.244 0.244141V1.228L315.473 1.52316L315.67 13.1327L317.539 13.3295V14.215L311.734 14.3134V13.4279L313.702 13.2311L313.505 1.62155L309.668 1.71993V3.3925C309.767 5.4586 309.668 7.52471 309.472 9.19728Z" fill="black"/>
<path d="M325.213 5.85215C326.689 5.95053 327.87 6.34408 328.657 7.03278C329.444 7.72148 329.838 8.80373 329.739 10.0828C329.641 11.5585 329.149 12.6408 328.263 13.3295C327.28 14.1166 326.099 14.4117 324.623 14.4117C324.426 14.4117 324.23 14.4117 324.033 14.4117C323.836 14.4117 323.639 14.4117 323.344 14.3134C322.655 14.215 321.967 14.215 321.376 14.1166L318.818 14.0182V13.1327L320.393 13.0343L320.786 1.42477L319.31 1.12962V0.244141L324.623 0.440914V1.32639L322.754 1.52316L322.557 5.85215H325.213ZM323.246 13.3295C323.443 13.3295 323.836 13.4279 324.23 13.4279C325.312 13.4279 326.099 13.2311 326.689 12.6408C327.28 12.0505 327.575 11.2634 327.575 10.1811C327.575 9.09889 327.378 8.41019 326.788 7.81987C326.296 7.32794 325.509 7.03278 324.426 6.93439H322.557L322.36 13.2311C322.754 13.2311 323.049 13.3295 323.246 13.3295ZM337.118 0.834459V1.71993L335.347 1.9167L334.954 13.5263L336.725 13.8214V14.7069L331.215 14.5101V13.6247L332.986 13.5263L333.38 1.9167L331.609 1.62155V0.736071L337.118 0.834459Z" fill="black"/>
<path d="M345.579 2.70383L344.104 2.31028L344.202 1.4248L349.22 1.91674L349.121 2.80221L347.547 2.9006L347.055 7.91829L353.647 8.60699L354.139 3.5893L352.663 3.19576L352.762 2.31028L357.779 2.80221L357.681 3.68769L356.205 3.78607L355.024 15.3956L356.5 15.6908L356.402 16.5763L351.384 16.0843L351.483 15.1989H353.057L353.647 9.78762L347.055 9.09892L346.465 14.5102L348.039 14.9037L347.941 15.7892L342.825 15.1989L342.923 14.3134H344.497L345.579 2.70383Z" fill="black"/>
<path d="M364.469 3.68774L366.535 3.9829L369.094 17.4618L370.176 17.8553L370.077 18.7408L365.158 17.9537L365.256 17.0683L366.831 17.1666L366.437 14.2151L361.026 13.428L359.747 15.986L361.321 16.3795L361.223 17.265L356.795 16.5763L356.894 15.6908H358.074L364.469 3.68774ZM365.256 6.8361L365.06 5.16354L364.371 6.73771L361.616 12.3457L366.339 13.0344L365.256 6.8361Z" fill="black"/>
<path d="M379.719 7.62326L377.752 6.93455L377.948 6.04907L382.769 7.13133L383.556 15.8877L383.655 18.3473L384.737 16.1828L389.066 8.50872L393.887 9.59098L393.69 10.4764L391.624 10.2797L390.542 21.8892L392.116 22.4796L391.919 23.365L386.705 22.1844L386.901 21.2989L388.574 21.4957L389.558 13.1329L389.951 9.49259L388.574 11.9522L383.458 20.807L382.277 20.5118L381.293 11.0668L380.998 7.42648L379.916 10.87L377.358 18.9377L379.129 19.528L378.932 20.4134L374.21 19.3312L374.406 18.4457L375.981 18.6425L379.719 7.62326Z" fill="black"/>
<path d="M400.774 11.3618L402.742 11.9521L403.726 25.6278L404.808 26.0213L404.611 26.9068L399.888 25.6278L400.085 24.7423L401.659 24.9391L401.561 22.0859L396.347 20.6101L394.772 23.0698L396.248 23.6601L396.051 24.5456L391.821 23.3649L392.018 22.4794L393.198 22.5778L400.774 11.3618ZM401.167 14.5102V12.8376L400.282 14.3134L396.839 19.6262L401.463 20.9053L401.167 14.5102Z" fill="black"/>
<path d="M410.416 15.3955L409.137 14.7068L409.432 13.8213L411.793 14.6084C412.187 14.7068 412.679 14.9035 413.072 15.0019C413.761 15.1987 414.351 15.2971 414.941 15.4939C416.614 16.0842 417.795 16.7729 418.287 17.6583C418.778 18.5438 418.877 19.6261 418.483 20.8067C418.188 21.7906 417.696 22.4793 417.008 23.0696C416.319 23.6599 415.532 23.9551 414.646 24.0534C413.761 24.1518 412.777 24.0534 411.793 23.7583C411.399 23.6599 411.104 23.5615 410.711 23.3647C410.317 23.2664 410.12 23.168 410.022 23.0696L408.743 27.005L411.104 27.9889L410.809 28.8744L405.004 27.005L405.3 26.1196L406.874 26.4147L410.416 15.3955ZM412.088 22.8728C413.072 23.168 413.859 23.168 414.646 22.7744C415.433 22.3809 416.024 21.5938 416.417 20.2164C416.712 19.2325 416.712 18.347 416.319 17.7567C415.925 17.1664 415.237 16.6745 414.154 16.2809C413.761 16.1826 413.367 16.0842 412.875 15.9858C412.58 15.8874 412.383 15.8874 412.383 15.8874L410.317 22.1841C410.711 22.3809 411.203 22.5777 412.088 22.8728Z" fill="black"/>
<path d="M419.172 31.0388C418.483 30.1533 418.09 29.0711 417.992 27.9888C417.893 26.9066 418.09 25.5292 418.582 24.1518C419.074 22.8728 419.762 21.7905 420.648 21.0034C421.533 20.2163 422.616 19.7244 423.796 19.5276C424.977 19.3309 426.158 19.4292 427.338 19.9212C428.224 20.2163 429.306 20.8067 430.388 21.4954L430.978 21.7905L429.601 24.8405L428.42 24.4469L428.814 22.0857C428.716 21.8889 428.42 21.6921 428.125 21.397C427.83 21.1018 427.24 20.905 426.649 20.7083C425.862 20.4131 425.174 20.4131 424.387 20.6099C423.6 20.8067 422.911 21.2986 422.32 21.9873C421.73 22.676 421.14 23.6598 420.746 24.7421C420.353 25.8243 420.156 26.9066 420.058 27.8904C420.058 28.8743 420.156 29.7598 420.648 30.5469C421.14 31.334 421.73 31.8259 422.616 32.121C423.206 32.3178 423.698 32.5146 424.091 32.5146C424.485 32.5146 424.78 32.5146 425.075 32.4162L426.453 30.9404L427.535 31.5307L426.158 33.892C425.862 33.7936 425.469 33.7936 424.977 33.6952C424.485 33.6952 424.091 33.5968 423.599 33.5968C423.206 33.4985 422.714 33.4001 422.124 33.2033C420.943 32.613 419.861 31.9243 419.172 31.0388Z" fill="black"/>
<path d="M446.523 27.7922L446.13 28.6777L444.359 28.0873L440.522 36.6469L442.883 35.1711L450.459 31.4325L450.656 30.9405L449.278 30.0551L449.672 29.1696L454.394 31.3341L454.001 32.2196L452.525 31.826L447.704 42.4517L449.081 43.2388L448.688 44.0259L443.965 41.8614L444.359 41.0743L445.933 41.5662L449.869 32.9083L447.704 34.2857L439.932 38.1227L439.636 38.713L441.112 39.5985L440.719 40.3856L435.898 38.2211L436.291 37.434L437.767 37.9259L442.588 27.3003L441.309 26.5132L441.703 25.6277L446.523 27.7922Z" fill="black"/>
<path d="M457.838 33.4001C458.428 33.4985 458.822 33.6953 459.215 33.7937C459.609 33.8921 460.002 34.0888 460.297 34.1872C461.675 34.8759 462.659 35.663 463.151 36.5485C463.643 37.434 463.643 38.3194 463.151 39.2049C462.659 40.0904 462.068 40.6807 461.183 40.8775C460.396 41.1726 459.51 41.1726 458.625 40.8775C459.609 41.4678 460.297 42.1565 460.593 42.9436C460.888 43.7307 460.789 44.6161 460.396 45.4032C459.806 46.5839 458.92 47.371 457.838 47.5677C456.756 47.8629 455.477 47.5677 453.804 46.7806C453.115 46.4855 452.623 46.0919 452.131 45.6984C451.639 45.3048 451.344 45.0097 451.049 44.8129C450.852 44.6161 450.656 44.4194 450.557 44.321L452.328 41.5662L453.115 41.9597L452.525 44.321C452.919 44.9113 453.607 45.4032 454.493 45.8952C455.28 46.2887 455.87 46.3871 456.559 46.0919C457.149 45.7968 457.739 45.3048 458.133 44.4194C458.527 43.7307 458.527 43.042 458.428 42.3533C458.33 41.6646 457.641 41.0742 456.657 40.5823L455.477 39.992L455.968 39.1065L456.952 39.5985C457.444 39.7952 457.936 39.992 458.428 39.992C458.92 39.992 459.412 39.8936 459.904 39.5985C460.396 39.3033 460.691 38.9098 460.986 38.3194C461.38 37.5323 461.478 36.942 461.183 36.3517C460.986 35.7614 460.494 35.3678 459.707 34.9743C459.215 34.6791 458.822 34.5808 458.33 34.4824C457.936 34.384 457.641 34.4824 457.444 34.5808L456.362 35.9582L455.28 35.4662L456.46 32.8098C456.854 33.105 457.248 33.2034 457.838 33.4001Z" fill="black"/>
<path d="M471.612 41.7631L470.431 40.7793L470.923 39.9922L473.088 41.2712C473.481 41.468 473.973 41.7631 474.563 42.0583C475.154 42.3535 475.547 42.5502 475.744 42.6486C477.22 43.5341 478.204 44.3212 478.499 45.2067C478.892 45.9937 478.794 46.8792 478.302 47.7647C477.81 48.5518 477.22 49.0437 476.531 49.3389C475.842 49.634 474.957 49.634 474.072 49.3389C475.154 49.9292 475.842 50.6179 476.138 51.5034C476.433 52.3888 476.334 53.1759 475.842 54.0614C475.252 55.1436 474.268 55.8324 473.186 56.0291C472.005 56.2259 470.53 55.8324 468.759 54.8485C468.365 54.6517 467.972 54.3566 467.676 54.1598C466.889 53.6679 466.397 53.3727 466.201 53.2743L464.036 51.9953L464.528 51.2082L466.004 51.7985L471.612 41.7631ZM469.152 53.963C470.234 54.5533 471.12 54.8485 471.907 54.6517C472.694 54.4549 473.284 53.963 473.776 53.1759C474.268 52.3888 474.367 51.6018 474.17 51.0114C473.973 50.4211 473.383 49.8308 472.399 49.2405C471.317 48.6502 470.628 48.2566 470.333 48.0599L467.578 52.8808C467.676 53.0775 468.267 53.3727 469.152 53.963ZM471.809 47.5679L472.694 48.0599C473.481 48.4534 474.17 48.6502 474.76 48.4534C475.35 48.2566 475.941 47.7647 476.334 46.9776C476.728 46.1905 476.925 45.6002 476.728 45.0099C476.531 44.4196 475.941 43.8292 475.055 43.3373C474.662 43.1405 474.268 42.9438 473.776 42.747L473.383 42.5502L470.825 47.076C471.022 47.076 471.317 47.2728 471.809 47.5679Z" fill="black"/>
<path d="M486.271 48.9451L488.042 50.0273L484.992 63.3094L485.878 64.0965L485.386 64.8836L481.254 62.2272L481.746 61.4401L483.123 62.1288L483.91 59.2756L479.286 56.324L477.023 58.1934L478.302 59.1772L477.81 59.9643L474.072 57.603L474.563 56.816L475.646 57.3079L486.271 48.9451ZM485.583 52.0934L486.075 50.4209L484.796 51.6015L479.975 55.6353L484.009 58.1934L485.583 52.0934Z" fill="black"/>
<path d="M488.239 66.1628C487.747 65.0806 487.649 63.9983 487.846 62.8177C488.043 61.6371 488.534 60.4564 489.42 59.2758C490.207 58.0952 491.191 57.3081 492.273 56.7177C493.355 56.1274 494.536 55.9307 495.717 56.029C496.897 56.1274 497.979 56.521 499.062 57.3081C499.849 57.8984 500.734 58.6855 501.62 59.6693L502.013 60.1613L499.947 62.8177L498.963 62.129L499.947 59.8661C499.849 59.6693 499.75 59.3742 499.455 59.079C499.16 58.7839 498.767 58.3903 498.275 58.0951C497.586 57.6032 496.897 57.4064 496.11 57.4064C495.323 57.4064 494.536 57.7016 493.749 58.1935C492.962 58.6855 492.175 59.4726 491.486 60.4564C490.797 61.4403 490.305 62.4241 490.01 63.3096C489.715 64.2935 489.715 65.179 489.912 65.966C490.109 66.7531 490.601 67.4418 491.388 68.0321C491.978 68.4257 492.372 68.6225 492.765 68.7208C493.159 68.8192 493.454 68.9176 493.749 68.8192L495.421 67.737L496.307 68.5241L494.438 70.4918C494.241 70.3934 493.847 70.1966 493.355 69.9999C492.863 69.9015 492.47 69.7047 492.076 69.5079C491.683 69.3112 491.191 69.1144 490.699 68.7208C489.518 68.1305 488.731 67.2451 488.239 66.1628Z" fill="black"/>
<path d="M508.408 67.9337C509.49 67.5401 510.474 67.4417 511.458 67.5401C512.442 67.6385 513.426 68.1304 514.213 68.7207C515.197 69.5078 515.787 70.2949 516.181 71.2788C516.476 72.2626 516.574 73.2465 516.279 74.3288C515.984 75.411 515.492 76.4932 514.607 77.5755C513.721 78.7561 512.639 79.6416 511.557 80.2319C510.474 80.8222 509.392 81.019 508.211 80.9206C507.031 80.8222 506.145 80.4287 505.26 79.74C504.276 78.9529 503.587 78.0674 503.194 77.0836C502.8 76.0997 502.8 75.1158 502.997 74.0336C503.292 72.9514 503.784 71.8691 504.571 70.7869L502.21 68.9175L498.865 73.2465L500.045 74.4271L499.455 75.1158L495.421 71.9675L496.012 71.2788L497.389 72.0659L504.473 62.916L503.391 61.8337L503.981 61.0466L507.916 64.0966L507.326 64.8837L505.949 64.0966L502.899 68.032L505.26 69.9014C506.441 69.0159 507.424 68.4256 508.408 67.9337ZM510.376 69.0159C509.195 69.4094 507.916 70.3933 506.637 72.0659C505.555 73.5417 504.866 74.8207 504.768 76.0997C504.67 77.3787 505.063 78.3626 506.047 79.1497C507.031 79.8384 508.015 80.0351 509.195 79.5432C510.376 79.1497 511.557 78.0674 512.836 76.4933C513.918 75.0175 514.607 73.7384 514.705 72.4594C514.803 71.1804 514.41 70.1965 513.524 69.5078C512.639 68.8191 511.557 68.6224 510.376 69.0159Z" fill="black"/>
<path d="M521.198 84.9545C521.198 85.7416 521.002 86.8239 520.805 88.1029C520.608 88.9884 520.608 89.6771 520.51 90.0706C520.51 90.4642 520.51 90.8577 520.608 90.9561L521.002 91.5464L520.411 92.2351L518.64 90.7593C518.444 90.5626 518.345 90.169 518.444 89.5787C518.542 88.9884 518.64 88.1029 518.837 87.0207C519.132 85.7416 519.231 84.7578 519.329 84.0691C519.428 83.3804 519.231 82.8884 519.034 82.5933L518.149 81.8062L514.705 85.84L515.787 87.119L515.197 87.8077L511.36 84.4626L511.95 83.7739L513.229 84.6594L520.805 75.903L519.821 74.7224L520.411 74.0337L524.15 77.2804L523.56 77.9691L522.281 77.0837L518.739 81.1175L519.919 82.1997L526.315 80.6256L525.232 79.4449L525.823 78.7562L529.266 81.8062L528.676 82.4949L527.397 81.7078L520.805 83.1836C521.1 83.5771 521.198 84.1674 521.198 84.9545Z" fill="black"/>
<path d="M523.265 94.1043C523.068 93.1204 523.068 92.0381 523.56 90.9559C523.953 89.8737 524.642 88.7914 525.626 87.8075C526.61 86.7253 527.692 86.0366 528.774 85.6431C529.955 85.2495 531.037 85.1511 532.119 85.3479C533.202 85.5447 534.185 86.0366 535.071 86.9221C536.448 88.2995 537.137 89.6769 537.039 91.3494C536.94 92.9236 536.153 94.4978 534.677 96.072C533.693 97.1542 532.611 97.8429 531.431 98.3349C530.25 98.7284 529.168 98.8268 527.987 98.63C526.905 98.4332 525.921 97.8429 525.035 97.0558C524.052 96.072 523.56 95.0881 523.265 94.1043ZM531.135 86.6269C529.955 86.9221 528.577 87.8075 527.2 89.2833C525.921 90.6607 525.134 91.9398 524.937 93.2188C524.642 94.4978 525.035 95.4817 525.921 96.3671C526.806 97.1542 527.889 97.4494 529.069 97.1542C530.348 96.8591 531.627 95.9736 533.005 94.4978C534.284 93.1204 535.071 91.8414 535.268 90.5624C535.464 89.3817 535.169 88.2995 534.284 87.414C533.398 86.6269 532.414 86.3318 531.135 86.6269Z" fill="black"/>
<path d="M540.974 94.3996L540.089 93.1206L540.777 92.4319L542.548 94.2028C542.843 94.498 543.237 94.8915 543.729 95.2851C544.221 95.6786 544.516 95.9738 544.713 96.1706C545.893 97.4496 546.582 98.4334 546.681 99.4173C546.779 100.401 546.484 101.09 545.795 101.877C545.205 102.467 544.418 102.861 543.63 102.959C542.843 103.058 542.056 102.861 541.269 102.27C542.155 103.156 542.548 103.943 542.647 104.927C542.745 105.812 542.351 106.599 541.663 107.288C540.777 108.174 539.695 108.567 538.514 108.469C537.334 108.37 536.055 107.583 534.579 106.108C534.284 105.812 533.989 105.419 533.694 105.124C533.005 104.435 532.611 103.943 532.513 103.845L530.742 102.074L531.431 101.483L532.611 102.467L540.974 94.3996ZM535.169 105.419C536.055 106.304 536.842 106.796 537.629 106.796C538.416 106.796 539.105 106.501 539.793 105.812C540.482 105.124 540.777 104.435 540.777 103.845C540.777 103.254 540.384 102.467 539.597 101.68C538.711 100.795 538.121 100.204 537.924 100.008L533.89 103.845C534.087 104.238 534.481 104.73 535.169 105.419ZM539.498 100.008L540.187 100.795C540.777 101.385 541.466 101.68 542.056 101.68C542.745 101.68 543.335 101.385 544.024 100.696C544.614 100.106 544.91 99.5157 544.91 98.9254C544.91 98.3351 544.516 97.6463 543.729 96.8593C543.434 96.5641 543.04 96.2689 542.745 95.8754L542.45 95.5802L538.711 99.2205C538.908 99.4173 539.105 99.6141 539.498 100.008Z" fill="black"/>
<path d="M561.635 115.257L560.947 115.848L559.766 114.765L551.01 122.341L551.993 123.817L551.305 124.407L547.861 120.373L548.55 119.783L549.731 120.865L558.585 113.29L554.65 108.764L545.795 116.438L546.779 117.914L546.09 118.504L542.647 114.569L543.335 113.978L544.418 114.962L553.174 107.386L552.289 106.009L552.977 105.419L561.635 115.257Z" fill="black"/>
<path d="M554.158 127.162C554.059 126.08 554.355 125.096 554.846 124.112C555.437 123.128 556.224 122.145 557.306 121.259C558.388 120.374 559.569 119.783 560.75 119.587C561.93 119.39 563.013 119.39 564.095 119.783C565.177 120.177 566.062 120.866 566.751 121.751C567.932 123.325 568.424 124.801 568.03 126.375C567.735 127.949 566.653 129.425 564.98 130.704C563.8 131.59 562.619 132.18 561.438 132.377C560.258 132.573 559.077 132.573 557.995 132.18C556.913 131.786 556.027 131.098 555.24 130.212C554.65 129.228 554.158 128.146 554.158 127.162ZM563.013 120.964C561.733 121.062 560.356 121.751 558.684 123.03C557.208 124.211 556.224 125.391 555.83 126.572C555.437 127.753 555.535 128.835 556.322 129.819C557.109 130.803 558.093 131.196 559.372 131.098C560.651 130.999 562.127 130.311 563.701 129.032C565.177 127.851 566.161 126.67 566.554 125.49C566.948 124.309 566.751 123.227 566.063 122.243C565.275 121.259 564.292 120.866 563.013 120.964Z" fill="black"/>
<path d="M566.948 136.607C565.374 137.394 564.095 137.886 563.111 137.985C562.619 137.985 562.127 137.985 561.832 137.788C561.438 137.591 561.143 137.394 560.848 137.001C560.455 136.509 560.258 136.115 560.159 135.82L561.34 134.836C561.438 135.131 561.734 135.525 562.127 136.017C562.226 136.214 562.422 136.312 562.619 136.41C562.816 136.509 563.013 136.509 563.308 136.509C565.079 136.41 567.834 135.033 571.474 132.377L572.654 131.491L571.572 129.622L572.359 129.031L578.656 137.788L577.869 138.378L576.688 137.099L567.243 143.888L568.129 145.462L567.342 145.954L563.996 141.231L564.784 140.739L566.063 142.215L575.508 135.427L573.343 132.377L571.966 133.36C570.195 134.836 568.522 135.82 566.948 136.607Z" fill="black"/>
<path d="M579.738 141.527L579.049 140.149L579.837 139.657L585.051 147.627L582.788 149.397L582.198 148.512L583.379 147.036L580.919 143.101L576.491 145.954L578.262 148.512L579.738 147.922L580.329 148.807L576.688 151.168L576.098 150.283L577.279 149.201L575.606 146.544L570.982 149.594L574.032 153.923L576.59 153.431L576.885 154.514L573.835 155.793L568.129 147.135L568.916 146.643L569.9 147.823L579.738 141.527Z" fill="black"/>
<path d="M588.199 154.612L586.428 151.956L582.69 153.431L582.099 152.349L586.527 150.086L592.528 160.122L588.298 162.876L587.707 161.893L590.757 159.334L589.183 156.481L579.049 162.483L580.23 164.844L579.443 165.336L575.803 159.236L576.59 158.744L577.967 160.712L588.199 154.612Z" fill="black"/>
<path d="M589.478 170.747L589.085 169.96C588.79 169.763 588.298 169.763 587.609 169.763C586.92 169.763 586.133 169.862 585.149 169.96C584.166 170.059 583.477 170.059 582.985 170.059C582.493 170.059 582.198 169.96 582.099 169.763L580.919 167.5L581.706 167.107L582.198 167.697C582.296 167.796 582.591 167.894 582.985 167.992C583.378 167.992 583.969 167.992 584.756 168.091C585.641 168.091 586.428 168.091 587.117 168.091C587.707 168.189 588.199 168.288 588.593 168.484C588.396 167.599 588.495 166.812 588.79 166.123C589.183 165.336 589.774 164.746 590.561 164.352C591.84 163.663 593.02 163.565 593.906 164.057C594.791 164.549 595.677 165.533 596.464 167.009C596.661 167.304 596.857 167.796 597.054 168.288C597.251 168.878 597.448 169.271 597.644 169.567L598.923 171.928L598.136 172.42L597.153 171.141L586.92 176.65L587.609 178.225L586.822 178.52L584.166 173.699L584.953 173.305L585.936 174.781L590.266 172.42L589.478 170.747ZM596.169 168.681C595.972 168.189 595.775 167.697 595.578 167.304C595.086 166.418 594.594 165.926 594.004 165.631C593.414 165.336 592.627 165.533 591.741 166.025C590.856 166.517 590.265 167.107 590.069 167.796C589.872 168.484 589.97 169.271 590.462 170.157C590.954 171.042 591.249 171.633 591.446 171.829L596.464 169.075L596.169 168.681Z" fill="black"/>
<path d="M600.99 178.224L599.514 175.371L595.677 176.552L595.185 175.47L599.809 173.6L604.925 184.029L600.498 186.391L600.006 185.308L603.253 183.045L601.974 180.094L591.348 185.21L592.332 187.67L591.545 188.063L588.396 181.668L589.183 181.274L590.462 183.341L600.99 178.224Z" fill="black"/>
<path d="M596.464 197.508C596.661 196.426 597.152 195.344 597.94 194.556C598.727 193.671 599.809 192.982 601.088 192.392C602.367 191.9 603.646 191.605 604.827 191.802C606.007 191.9 607.089 192.392 608.073 193.081C609.057 193.769 609.746 194.753 610.238 195.934C610.631 196.819 610.927 197.902 611.123 199.279L611.222 199.869L608.073 200.952L607.581 199.771L609.549 198.394C609.647 198.197 609.647 197.803 609.549 197.41C609.451 197.016 609.352 196.426 609.057 195.934C608.762 195.245 608.27 194.655 607.581 194.261C606.893 193.868 606.106 193.671 605.122 193.671C604.138 193.671 603.154 193.966 601.973 194.36C600.891 194.852 600.006 195.344 599.219 196.032C598.431 196.721 597.94 197.41 597.644 198.197C597.349 198.984 597.448 199.869 597.743 200.656C598.038 201.247 598.235 201.739 598.53 202.034C598.727 202.329 599.022 202.526 599.317 202.722H601.285L601.58 203.903L598.923 204.493C598.825 204.297 598.628 203.903 598.235 203.51C597.94 203.116 597.644 202.821 597.448 202.427C597.251 202.034 596.956 201.64 596.759 201.05C596.464 199.869 596.267 198.689 596.464 197.508Z" fill="black"/>
<path d="M614.37 206.756L613.485 207.052L612.599 205.379L603.745 208.626L606.401 209.314L614.469 212.069L614.96 211.873L614.567 210.2L615.452 209.905L617.223 214.726L616.338 215.021L615.649 213.742L604.728 217.776L605.122 219.35L604.236 219.645L602.465 214.726L603.351 214.431L604.138 215.906L613.091 212.66L610.533 212.069L602.367 209.216L601.777 209.413L602.17 211.085L601.285 211.381L599.514 206.461L600.399 206.166L601.088 207.544L612.009 203.51L611.714 202.034L612.599 201.739L614.37 206.756Z" fill="black"/>
<path d="M620.864 226.04L616.239 227.614L615.846 226.434L619.289 224.761L618.207 220.826L606.991 224.368L607.778 227.516L606.893 227.811L604.63 220.826L605.515 220.531L606.302 222.4L617.322 218.858L616.928 216.89L617.814 216.595L620.864 226.04Z" fill="black"/>
<path d="M620.667 229.484L620.47 228.008L621.355 227.811L622.634 232.731L621.749 232.927L621.159 231.452L616.338 232.731L618.01 239.126L622.831 237.847L622.634 236.371L623.52 236.174L624.799 240.995L623.914 241.192L623.323 239.814L612.107 242.864L612.304 244.34L611.418 244.537L610.139 239.716L611.025 239.519L611.615 240.995L616.83 239.618L615.157 233.223L609.943 234.6L610.139 236.174L609.254 236.371L607.877 231.452L608.762 231.255L609.352 232.632L620.667 229.484Z" fill="black"/>
<path d="M626.57 247.488L627.062 249.456L615.452 256.638L615.551 257.819L614.665 258.016L613.583 253.195L614.468 252.998L614.96 254.474L617.518 252.998L616.338 247.685L613.485 247.39L613.681 248.964L612.796 249.161L611.812 244.832L612.697 244.635L613.091 245.717L626.57 247.488ZM623.913 249.358L625.389 248.571L623.618 248.472L617.322 247.882L618.305 252.506L623.913 249.358Z" fill="black"/>
<path d="M620.47 261.951C618.699 261.951 617.42 261.853 616.436 261.459C615.944 261.262 615.551 261.066 615.354 260.77C615.059 260.475 614.96 260.082 614.862 259.688C614.764 259.098 614.665 258.704 614.764 258.409L616.239 258.016C616.239 258.311 616.338 258.803 616.436 259.393C616.436 259.59 616.535 259.787 616.731 259.983C616.83 260.18 617.027 260.279 617.322 260.377C618.896 261.066 622.044 260.967 626.472 260.18L627.947 259.885L627.751 257.72L628.636 257.524L630.505 268.149L629.62 268.346L629.128 266.674L617.715 268.641L617.814 270.511L616.928 270.707L615.944 265.001L616.83 264.804L617.322 266.674L628.734 264.706L628.046 260.967L626.373 261.262C624.11 261.656 622.143 261.853 620.47 261.951Z" fill="black"/>
<path d="M626.177 276.906C626.373 278.382 626.177 279.661 625.488 280.546C624.898 281.432 623.914 281.924 622.635 282.12C621.257 282.317 620.077 281.924 619.191 281.136C618.306 280.349 617.814 279.169 617.617 277.693C617.617 277.496 617.617 277.299 617.519 277.103C617.42 276.906 617.519 276.709 617.519 276.414C617.519 275.725 617.42 275.037 617.42 274.446L617.125 271.888L618.01 271.79L618.404 273.364L630.014 271.987L630.112 270.412L630.997 270.314L631.588 275.627L630.702 275.725L630.112 273.954L625.783 274.446L626.177 276.906ZM618.502 276.217C618.502 276.414 618.502 276.807 618.601 277.201C618.699 278.283 619.093 278.972 619.781 279.464C620.47 279.956 621.257 280.153 622.339 279.956C623.323 279.857 624.11 279.464 624.504 278.874C624.996 278.283 625.094 277.496 624.996 276.414L624.799 274.545L618.502 275.332C618.502 275.725 618.502 276.02 618.502 276.217ZM632.965 287.925L632.08 288.023L631.686 286.351L620.175 287.728V289.499L619.29 289.598L618.601 284.186L619.486 284.088L619.88 285.761L631.391 284.383V282.612L632.276 282.514L632.965 287.925Z" fill="black"/>
<path d="M632.375 296.583L632.572 295.107H633.457L633.654 300.223H632.768L632.473 298.649L627.455 298.846L627.751 305.438L632.768 305.241L632.965 303.765H633.851L634.047 308.783H633.162L632.867 307.307L621.257 307.897L621.159 309.373H620.273L620.077 304.355H620.962L621.257 305.831L626.668 305.536L626.373 298.944L620.962 299.239L620.864 300.912H619.978L619.781 295.796H620.667L620.962 297.272L632.375 296.583Z" fill="black"/>
<path d="M634.244 315.276V317.343L621.454 322.065L621.257 323.246H620.372L620.273 318.326H621.159L621.355 319.901L624.11 319.015L624.012 313.604L621.257 312.817L621.06 314.391H620.175L620.076 309.964H620.962L621.159 311.144L634.244 315.276ZM631.292 316.457L632.965 315.965L631.292 315.572L625.291 313.801L625.389 318.523L631.292 316.457Z" fill="black"/>
<path d="M632.768 331.117L633.162 329.05L634.047 329.149L633.752 334.068L625.192 336.134L622.831 336.626L625.192 337.315L633.457 340.463L633.162 345.383L632.276 345.284L632.178 343.218L620.47 344.005L620.175 345.579L619.289 345.481L619.584 340.07L620.47 340.168L620.568 341.841L629.03 341.546L632.67 341.349L630.013 340.365L620.47 336.626L620.568 335.446L629.718 332.986L633.359 332.1L629.718 331.51L621.355 330.231L621.06 332.1L620.175 332.002L620.47 327.181L621.355 327.28L621.454 328.854L632.768 331.117Z" fill="black"/>
<path d="M632.375 352.565L632.178 354.631L618.896 357.681L618.601 358.763L617.715 358.664L618.306 353.745L619.191 353.844V355.418L622.044 354.827L622.635 349.416L619.978 348.236L619.585 349.81L618.699 349.711L619.191 345.284L620.077 345.382L620.175 346.563L632.375 352.565ZM629.226 353.352L630.899 353.056L629.325 352.466L623.618 349.908L623.127 354.631L629.226 353.352Z" fill="black"/>
<path d="M629.817 362.6L630.309 361.223L631.194 361.321L630.801 363.781C630.702 364.273 630.702 364.666 630.604 365.06C630.505 365.748 630.505 366.339 630.407 366.929C630.112 368.7 629.62 369.881 628.833 370.569C628.046 371.16 627.062 371.455 625.684 371.258C624.701 371.061 623.914 370.766 623.225 370.176C622.536 369.585 622.143 368.897 621.847 368.011C621.552 367.126 621.552 366.142 621.749 365.158C621.847 364.765 621.847 364.469 621.946 364.076C622.044 363.682 622.044 363.485 622.143 363.387L618.109 362.797L617.518 365.256L616.633 365.158L617.617 359.156L618.502 359.255L618.404 360.829L629.817 362.6ZM622.733 365.355C622.536 366.339 622.733 367.126 623.225 367.913C623.717 368.7 624.602 369.093 625.98 369.29C627.062 369.487 627.849 369.29 628.341 368.897C628.931 368.405 629.226 367.618 629.423 366.535C629.522 366.142 629.522 365.748 629.522 365.256C629.522 364.961 629.522 364.765 629.522 364.666L622.93 363.682C622.93 363.977 622.831 364.568 622.733 365.355Z" fill="black"/>
<path d="M615.748 373.718C616.535 372.931 617.518 372.34 618.601 372.045C619.781 371.75 621.06 371.75 622.438 372.045C623.815 372.34 624.996 372.832 625.881 373.619C626.865 374.406 627.455 375.39 627.849 376.472C628.243 377.555 628.341 378.735 628.046 380.014C627.849 380.998 627.455 382.08 626.964 383.359L626.767 383.95L623.52 383.163L623.717 381.982H626.176C626.373 381.884 626.57 381.589 626.767 381.195C626.964 380.801 627.062 380.31 627.259 379.719C627.455 378.932 627.357 378.243 626.964 377.456C626.668 376.768 626.078 376.177 625.291 375.587C624.504 375.095 623.52 374.702 622.241 374.406C621.06 374.21 619.978 374.111 618.994 374.21C618.01 374.308 617.125 374.603 616.436 375.193C615.748 375.685 615.354 376.374 615.157 377.358C615.059 378.047 614.96 378.539 615.059 378.932C615.059 379.326 615.157 379.621 615.354 379.916L617.027 380.998L616.633 382.08L614.075 381.097C614.075 380.801 614.075 380.408 614.075 379.916C614.075 379.424 613.977 379.03 613.977 378.539C613.977 378.145 614.075 377.555 614.173 376.964C614.469 375.685 614.96 374.603 615.748 373.718Z" fill="black"/>
<path d="M623.225 400.184L622.339 399.888L622.634 398.019L613.583 395.559L615.354 397.626L620.273 404.611L620.765 404.709L621.454 403.135L622.339 403.43L620.962 408.35L620.076 408.054L620.273 406.579L609.057 403.529L608.467 405.005L607.581 404.808L608.959 399.79L609.844 399.987L609.549 401.659L618.699 404.217L616.928 402.348L612.009 395.264L611.32 395.068L610.631 396.74L609.746 396.543L611.123 391.427L612.009 391.624L611.812 393.198L623.028 396.248L623.618 394.871L624.504 395.166L623.225 400.184Z" fill="black"/>
<path d="M619.486 412.187C619.388 412.777 619.388 413.269 619.289 413.662C619.191 414.056 619.093 414.45 618.994 414.745C618.502 416.22 617.912 417.303 617.125 417.893C616.338 418.483 615.452 418.68 614.468 418.385C613.484 418.09 612.894 417.499 612.501 416.712C612.107 415.925 612.009 415.138 612.107 414.154C611.714 415.237 611.123 416.024 610.336 416.417C609.549 416.811 608.762 416.909 607.877 416.614C606.598 416.22 605.712 415.532 605.318 414.449C604.925 413.466 604.925 412.088 605.515 410.317C605.712 409.629 606.007 409.038 606.302 408.448C606.597 407.956 606.893 407.562 607.089 407.267C607.286 406.972 607.385 406.775 607.483 406.775L610.435 408.054L610.139 408.94L607.68 408.645C607.188 409.137 606.794 409.825 606.401 410.908C606.106 411.695 606.204 412.383 606.499 412.974C606.794 413.564 607.483 413.958 608.467 414.253C609.156 414.45 609.844 414.45 610.533 414.154C611.222 413.859 611.714 413.17 612.009 412.187L612.402 410.908L613.386 411.203L613.091 412.187C612.894 412.679 612.894 413.17 612.894 413.662C612.993 414.154 613.189 414.646 613.484 415.04C613.78 415.433 614.272 415.729 614.862 415.925C615.649 416.22 616.338 416.122 616.83 415.827C617.322 415.532 617.715 414.941 618.01 414.154C618.207 413.662 618.305 413.17 618.207 412.777C618.207 412.383 618.109 412.088 617.912 411.891L616.338 411.006L616.731 409.924L619.486 410.612C619.584 411.203 619.486 411.596 619.486 412.187Z" fill="black"/>
<path d="M613.386 427.24L614.173 425.862L615.059 426.158L614.173 428.519C613.977 428.912 613.878 429.404 613.682 430.093C613.485 430.683 613.386 431.077 613.288 431.372C612.698 432.946 612.009 434.028 611.222 434.52C610.435 435.012 609.549 435.111 608.664 434.717C607.877 434.422 607.188 433.93 606.794 433.143C606.401 432.454 606.303 431.667 606.401 430.782C606.007 431.864 605.417 432.651 604.63 433.143C603.843 433.537 602.957 433.635 602.072 433.241C600.891 432.749 600.104 431.962 599.711 430.88C599.317 429.798 599.416 428.224 600.203 426.354C600.399 425.961 600.498 425.567 600.695 425.174C601.088 424.288 601.285 423.698 601.383 423.6L602.269 421.238L603.154 421.533L602.761 423.009L613.386 427.24ZM600.891 426.65C600.399 427.83 600.399 428.814 600.596 429.503C600.793 430.191 601.482 430.782 602.367 431.077C603.253 431.47 604.04 431.47 604.63 431.175C605.22 430.88 605.712 430.191 606.106 429.208C606.598 428.027 606.795 427.24 606.893 426.945L601.678 424.977C601.58 425.075 601.285 425.666 600.891 426.65ZM607.582 428.224L607.188 429.208C606.893 429.995 606.893 430.683 607.188 431.274C607.483 431.864 608.074 432.356 608.861 432.651C609.648 432.946 610.336 432.946 610.927 432.749C611.419 432.454 611.911 431.864 612.304 430.782C612.501 430.388 612.599 429.896 612.698 429.503L612.796 429.109L607.975 427.24C607.975 427.437 607.778 427.732 607.582 428.224Z" fill="black"/>
<path d="M608.467 442.785L607.68 444.654L594.004 443.67L593.414 444.654L592.528 444.26L594.496 439.735L595.382 440.128L594.89 441.604L597.743 441.899L599.907 436.881L597.743 435.012L596.956 436.39L596.07 435.996L597.841 431.962L598.727 432.356L598.431 433.536L608.467 442.785ZM605.22 442.588L606.893 442.785L605.515 441.702L600.793 437.57L598.923 441.899L605.22 442.588Z" fill="black"/>
<path d="M591.741 447.409C592.725 446.819 593.807 446.523 594.988 446.523C596.169 446.523 597.448 446.917 598.727 447.507C600.006 448.098 600.99 448.885 601.678 449.869C602.367 450.852 602.761 451.935 602.859 453.115C602.957 454.296 602.662 455.477 602.17 456.559C601.777 457.444 601.088 458.428 600.301 459.51L599.907 460.002L596.956 458.33L597.546 457.247L599.907 457.838C600.104 457.739 600.399 457.543 600.694 457.149C600.99 456.854 601.285 456.362 601.482 455.772C601.875 455.083 601.974 454.296 601.777 453.509C601.678 452.722 601.285 452.033 600.596 451.344C599.907 450.656 599.12 449.967 597.94 449.475C596.857 448.983 595.874 448.59 594.89 448.491C593.906 448.393 593.02 448.491 592.233 448.786C591.446 449.081 590.856 449.672 590.462 450.557C590.167 451.148 589.97 451.639 589.97 452.033C589.872 452.427 589.97 452.722 589.97 453.017L591.249 454.493L590.561 455.477L588.396 453.902C588.495 453.706 588.593 453.312 588.691 452.722C588.79 452.23 588.888 451.836 588.987 451.443C589.085 451.049 589.282 450.557 589.577 449.967C589.97 448.983 590.758 447.999 591.741 447.409Z" fill="black"/>
<path d="M593.119 467.676C593.709 468.66 594.004 469.644 594.004 470.628C594.004 471.612 593.807 472.596 593.217 473.481C592.627 474.563 591.84 475.351 590.954 475.842C590.069 476.334 588.986 476.531 587.904 476.433C586.822 476.334 585.641 475.941 584.461 475.351C583.182 474.662 582.099 473.776 581.411 472.694C580.722 471.71 580.23 470.628 580.23 469.546C580.132 468.463 580.427 467.381 580.919 466.397C581.509 465.315 582.296 464.528 583.182 463.938C584.067 463.446 585.149 463.249 586.232 463.347C587.314 463.446 588.494 463.839 589.675 464.43L591.151 461.773L586.33 459.117L585.346 460.396L584.559 459.904L587.019 455.378L587.806 455.772L587.215 457.247L597.349 462.855L598.235 461.675L599.022 462.167L596.562 466.594L595.775 466.102L596.365 464.626L591.938 462.167L590.462 464.823C591.741 465.807 592.528 466.693 593.119 467.676ZM592.43 469.644C591.84 468.562 590.659 467.48 588.888 466.496C587.314 465.61 585.838 465.217 584.559 465.315C583.28 465.414 582.296 466.004 581.706 467.086C581.116 468.168 581.116 469.152 581.706 470.234C582.296 471.317 583.477 472.399 585.346 473.383C586.92 474.268 588.298 474.662 589.577 474.662C590.856 474.662 591.741 474.071 592.332 472.989C592.922 471.907 592.922 470.825 592.43 469.644Z" fill="black"/>
<path d="M578.262 482.828C577.475 482.926 576.393 482.926 575.114 482.926C574.229 482.926 573.54 482.926 573.048 482.926C572.654 482.926 572.359 483.025 572.163 483.221L571.572 483.713L570.785 483.221L571.966 481.254C572.163 481.057 572.458 480.86 573.146 480.86C573.737 480.86 574.622 480.86 575.803 480.86C577.082 480.959 578.066 480.959 578.853 480.86C579.542 480.86 580.033 480.663 580.23 480.27L580.821 479.286L576.295 476.433L575.213 477.712L574.425 477.22L577.18 472.891L577.967 473.383L577.279 474.76L587.117 480.959L588.101 479.778L588.888 480.27L586.232 484.5L585.445 484.008L586.035 482.533L581.509 479.679L580.624 481.057L583.182 487.157L584.166 485.976L584.953 486.468L582.493 490.404L581.706 489.912L582.296 488.534L579.837 482.238C579.738 482.533 579.05 482.729 578.262 482.828Z" fill="black"/>
<path d="M569.604 486.37C570.588 485.976 571.671 485.878 572.753 486.173C573.933 486.37 575.016 486.96 576.196 487.747C577.377 488.534 578.262 489.518 578.853 490.6C579.443 491.683 579.738 492.765 579.64 493.847C579.542 494.929 579.246 496.012 578.558 496.996C577.475 498.57 576.098 499.455 574.524 499.652C572.95 499.849 571.277 499.258 569.408 498.078C568.227 497.291 567.342 496.307 566.751 495.225C566.161 494.142 565.866 493.06 565.964 491.879C565.964 490.699 566.358 489.715 567.046 488.731C567.735 487.452 568.621 486.763 569.604 486.37ZM578.164 492.962C577.672 491.781 576.59 490.6 574.917 489.518C573.343 488.436 571.966 487.944 570.687 487.846C569.408 487.747 568.424 488.239 567.735 489.223C567.046 490.207 566.948 491.289 567.44 492.47C567.932 493.65 569.014 494.831 570.687 496.012C572.261 497.094 573.638 497.586 574.917 497.684C576.196 497.684 577.18 497.192 577.869 496.208C578.558 495.225 578.656 494.142 578.164 492.962Z" fill="black"/>
<path d="M572.064 503.784L573.146 502.702L573.933 503.292L572.458 505.26C572.163 505.555 571.867 506.047 571.572 506.637C571.277 507.129 570.982 507.523 570.785 507.72C569.703 509.097 568.817 509.884 567.932 510.179C567.046 510.474 566.161 510.278 565.374 509.687C564.685 509.195 564.193 508.507 563.996 507.72C563.8 506.933 563.898 506.145 564.292 505.358C563.603 506.342 562.816 506.933 561.93 507.129C561.045 507.326 560.159 507.129 559.372 506.539C558.388 505.752 557.798 504.768 557.7 503.587C557.601 502.407 558.192 500.931 559.372 499.357C559.667 498.963 559.963 498.668 560.159 498.373C560.75 497.586 561.143 497.192 561.242 496.996L562.717 495.028L563.406 495.618L562.619 496.996L572.064 503.784ZM560.258 499.849C559.471 500.833 559.176 501.718 559.274 502.505C559.372 503.292 559.766 503.981 560.553 504.571C561.34 505.162 562.029 505.358 562.717 505.26C563.406 505.162 563.996 504.67 564.685 503.784C565.472 502.8 565.964 502.112 566.063 501.816L561.635 498.471C561.242 498.471 560.848 498.963 560.258 499.849ZM566.259 503.194L565.669 503.981C565.177 504.67 564.98 505.358 565.079 506.047C565.177 506.736 565.571 507.326 566.358 507.818C567.046 508.31 567.735 508.507 568.325 508.408C568.916 508.31 569.506 507.818 570.195 506.933C570.49 506.539 570.687 506.145 570.982 505.752L571.179 505.457L567.046 502.308C566.751 502.505 566.554 502.8 566.259 503.194Z" fill="black"/>
<g style="mix-blend-mode:overlay">
<circle cx="50.4088" cy="159.067" r="2" transform="rotate(-15 50.4088 159.067)" fill="black"/>
</g>
<g style="mix-blend-mode:overlay">
<circle cx="434.491" cy="29.619" r="2" transform="rotate(-15 434.491 29.619)" fill="black"/>
</g>
</g>
</svg>
