<svg width="293" height="299" viewBox="0 0 293 299" fill="none" xmlns="http://www.w3.org/2000/svg">
<path d="M145.593 145.455L146.115 145.745L146.304 146.538L142.38 155.846C142.138 155.601 141.951 155.368 141.747 155.092C142.092 154.436 142.273 153.692 142.576 153.012L145.593 145.455Z" fill="#010000"/>
<path d="M161.229 113.705L162.052 113.603C161.524 120.014 158.796 125.821 153.879 130.033C153.622 130.254 153.437 130.384 153.127 130.53C151.305 129.917 149.452 128.94 147.829 127.913L148.021 127.558C149.59 128.021 151.296 129.058 152.808 129.752C153.167 129.541 153.475 129.321 153.793 129.05C157.818 125.609 160.812 118.909 161.229 113.705Z" fill="#010000"/>
<path d="M148.021 127.558L147.902 127.211L161.319 111.612L161.229 113.705C160.812 118.909 157.818 125.609 153.793 129.049C153.475 129.321 153.167 129.54 152.808 129.752C151.296 129.058 149.59 128.021 148.021 127.558Z" fill="#0C0C0C"/>
<path d="M145.593 145.455L148.626 138.068C149.686 135.595 150.718 132.289 153.04 130.772L153.584 130.375C158.679 133.031 161.545 139.89 163.165 145.121C164.03 147.917 164.296 150.618 164.004 153.527C163.279 152.686 162.784 151.346 162.229 150.361C160.811 147.844 159.403 145.679 158.368 142.96C158.27 144.912 158.353 148.124 157.039 149.673L156.836 149.93L156.697 150.101C157.352 152.635 159.36 154.852 159.634 157.565L157.118 152.224C156.044 155.933 154.691 160.015 152.795 163.38C152.567 163.785 152.244 164.574 151.866 164.833L151.792 164.639C150.896 162.344 149.739 160.21 148.895 157.883C148.697 157.337 148.88 156.889 149.027 156.349C149.352 155.154 150.546 152.438 150.295 151.276C150.145 150.582 149.158 149.394 148.8 148.668C148.111 147.266 147.481 145.791 147 144.303C146.797 145.062 146.614 145.815 146.304 146.538L146.115 145.745L145.593 145.455Z" fill="#0C0C0C"/>
<path fill-rule="evenodd" clip-rule="evenodd" d="M127.255 115.244L147.829 127.913L148.021 127.558L147.902 127.211L161.319 111.612L161.229 113.705L162.052 113.603C162.056 113.428 162.055 113.24 162.053 113.045C162.048 112.364 162.043 111.602 162.268 111.032C162.617 110.15 162.532 108.922 162.457 107.847C162.436 107.546 162.416 107.257 162.406 106.991L167.817 108.48C170.642 109.032 173.979 108.948 176.416 107.251C177.506 106.492 178.435 105.24 178.842 103.976C179.061 103.301 179.184 102.575 179.257 101.87C179.335 101.128 179.368 100.378 179.401 99.6277C179.458 98.2964 179.516 96.9624 179.83 95.666C180.084 94.6116 180.444 93.5846 180.804 92.5576C181.256 91.2687 181.708 89.9796 181.951 88.6358L181.995 88.3772C182.118 87.6999 182.146 87.2562 181.988 86.5783L181.783 85.6008L181.783 85.5999C181.874 85.2249 181.948 84.8469 182.022 84.4692C182.173 83.699 182.323 82.9304 182.618 82.1926C182.791 81.761 183.007 81.3357 183.223 80.9094C183.532 80.2993 183.843 79.6871 184.03 79.0514C184.154 78.6307 184.206 78.1923 184.259 77.7538C184.302 77.3923 184.345 77.0307 184.429 76.6789C184.61 75.916 184.818 75.1715 185.024 74.4314C185.499 72.7336 185.966 71.0588 186.089 69.2371C186.221 67.2962 185.991 65.2861 185.707 63.3669C185.679 63.1764 185.607 62.8987 185.529 62.5993C185.391 62.0669 185.234 61.466 185.277 61.1661C185.288 61.088 185.482 60.8124 185.622 60.614C185.678 60.5341 185.726 60.4668 185.749 60.4299C186.362 59.4492 186.596 58.9812 186.601 57.7803C186.389 57.6825 186.164 57.6145 185.931 57.566C186.164 57.6145 186.389 57.6825 186.602 57.7803L186.839 57.5389C187.577 56.66 188.771 54.4835 189.322 52.3799C189.522 50.5854 189.155 48.4703 188.792 46.3712C188.572 45.1008 188.353 43.8362 188.261 42.6521C188.57 42.4128 188.891 42.1767 189.214 41.939C189.993 41.3662 190.784 40.784 191.453 40.1235C193.529 38.0718 195.033 34.8413 195.364 31.9513C195.705 28.9755 194.834 25.8825 192.922 23.5725C191.646 22.0315 190.304 21.3301 188.395 20.8108C188.288 20.7817 188.249 20.7816 188.232 20.7623C188.211 20.7394 188.221 20.6896 188.184 20.5332C189.484 16.3146 189.644 12.3006 187.543 8.26787C185.837 4.99417 183.241 4.04817 179.72 3.51528C178.76 5.64856 176.839 6.42035 175.071 6.52069C172.602 6.66084 169.739 5.50174 167.165 4.45947C166.314 4.11492 165.495 3.78314 164.731 3.51528C154.243 -0.166383 140.559 -3.04734 131.927 6.13C131.195 6.90817 130.514 7.76406 129.929 8.65778C129.843 8.78809 129.722 9.00833 129.584 9.26017C129.255 9.85833 128.829 10.6348 128.549 10.8081C128.267 10.9832 127.466 11.0555 126.771 11.1184C126.388 11.153 126.036 11.1848 125.821 11.2293C124.086 11.5885 122.488 12.3209 120.952 13.1884C110.198 19.2618 108.142 32.8118 108.576 44.1097C109.056 56.6069 113.756 67.8352 119.818 78.5815C120.078 79.0415 120.344 79.5521 120.62 80.0827C121.47 81.714 122.417 83.5335 123.577 84.647C124.08 85.129 124.642 85.4126 125.289 85.6469C125.494 86.3525 125.387 87.3544 125.292 88.2339C125.259 88.5408 125.228 88.8329 125.212 89.0922C124.939 93.5381 124.539 98.1031 123.675 102.475L123.501 102.485L123.212 102.514L123.016 102.528C121.902 102.634 120.898 103.359 120.225 104.226C119.637 104.981 119.167 105.888 119.293 106.871C119.697 110.041 123.704 112.798 126.421 114.667C126.717 114.87 126.996 115.062 127.255 115.244ZM184.523 57.4313C184.523 57.4313 184.523 57.4313 184.523 57.4313C184.523 57.4313 184.523 57.4313 184.523 57.4313C184.523 57.4313 184.523 57.4313 184.523 57.4313ZM179.539 59.305L179.282 59.1854L179.3 58.0984C179.318 57.8178 179.275 57.758 179.163 57.5998C179.134 57.5603 179.102 57.5145 179.065 57.4576C179.065 57.4577 179.064 57.4578 179.064 57.458C179.102 57.5147 179.134 57.5603 179.162 57.5998C179.275 57.758 179.318 57.8178 179.3 58.0984L179.282 59.1854L179.539 59.3051L179.539 59.305Z" fill="#0C0C0C"/>
<path d="M151.618 277.164L156.365 277.162C156.748 277.162 157.649 277.053 157.966 277.162C158.098 277.207 158.178 277.344 158.284 277.435L158.188 277.72L153.251 277.773C152.702 277.767 151.942 277.874 151.479 277.567L151.618 277.164Z" fill="#010000"/>
<path d="M148.249 267.613C149.396 268.419 150.708 268.207 152.071 268.219L157.824 268.254C157.423 268.575 156.694 268.444 156.171 268.445L151.11 268.452C151.231 268.799 151.255 268.75 151.544 268.938C150.547 268.962 149.416 268.872 148.467 269.194C148.179 269.657 148.233 269.89 148.228 270.426L148.066 270.244C147.979 269.839 147.921 269.671 148.059 269.269C148.243 268.728 148.23 268.18 148.249 267.613Z" fill="#161515"/>
<path d="M170.206 288.007L175.709 288.025C176.553 288.028 177.57 287.92 178.396 288.047L178.164 288.25L173.206 288.286L172.982 288.656C173.503 289.002 174.711 288.852 175.361 288.857L181.96 288.862C182.926 288.858 184.195 288.69 185.1 288.957C183.365 289.224 181.475 289.097 179.718 289.104L170.08 289.069L170.41 288.494L170.206 288.007Z" fill="#161515"/>
<path d="M175.732 256.468L180.747 256.387C182.473 256.862 184.691 256.599 186.488 256.589L186.417 256.838C185.831 257.097 185.175 256.961 184.56 257.081C183.506 257.264 182.172 257.109 181.09 257.1L173.012 257.024L172.965 256.838L172.146 256.777L172.052 256.589L175.516 256.494L175.732 256.468Z" fill="#010000"/>
<path d="M157.448 273.227C158.216 273.206 159.533 273.012 160.255 273.165C160.82 273.207 161.397 273.142 161.874 273.456C161.801 273.54 161.524 273.807 161.52 273.912L150.213 273.907L150.12 273.699L148.421 273.645L148.606 273.407C149.323 273.243 150.004 273.361 150.729 273.391C151.741 273.433 156.934 273.702 157.448 273.227Z" fill="#010000"/>
<path d="M182.391 238.402L188.481 238.52C188.371 238.825 188.359 239.126 188.072 239.294L183.753 239.106C183.677 238.969 183.718 238.772 183.719 238.617C183.239 238.606 182.77 238.709 182.391 238.402Z" fill="#161515"/>
<path fill-rule="evenodd" clip-rule="evenodd" d="M108.377 116.367L105.793 118.802C104.24 120.249 102.777 120.939 101.027 121.764C100.543 121.993 100.036 122.232 99.5 122.5L70.1318 135.646L61.8041 141.275C61.6395 141.398 61.4716 141.522 61.3021 141.647C60.252 142.423 59.1379 143.246 58.3331 144.241C56.4103 146.62 55.6367 150.018 54.9621 152.981C54.9243 153.147 54.8868 153.311 54.8494 153.475L52.8143 163.972L47.2463 199.422L41.6187 240.794L39.122 260.086C38.4928 265.259 37.8814 270.546 38.0523 275.766C38.2303 281.191 39.3928 286.433 42.3279 291.063C44.6978 294.802 48.3371 298.004 52.5026 299.573C57.4752 301.446 62.796 302.658 68.0211 303.848C69.0175 304.074 70.0104 304.301 70.9967 304.53L103.5 312.69L107.321 319.512C107.562 319.56 107.875 319.597 108.212 319.637C108.934 319.722 109.761 319.82 110.191 320.069L110.055 325.21L0.19704 325.256L0 333.452L292.98 333.403L293 325.283L230.479 324.798C233.991 321.255 234.615 315.814 233.991 310.676L240.879 296.229L246.592 282.434C246.865 281.735 247.143 281.034 247.422 280.331C249.611 274.819 251.852 269.175 252 263.194C252.104 258.951 250.936 254.772 249.791 250.681C249.583 249.935 249.375 249.191 249.176 248.451L246.443 238.195L239.87 214.459L227.696 171.385C227.107 169.316 226.528 167.239 225.949 165.158C223.659 156.937 221.356 148.669 218.333 140.718L218.331 140.713C217.659 138.946 216.886 136.912 215.407 135.646C213.699 134.184 211.478 133.162 209.33 132.174C208.484 131.785 207.65 131.401 206.863 130.998L173.105 120.734L188.254 144.515L181.695 150.983L181.201 150.589C181.71 150.053 182.25 149.514 182.798 148.968C184.306 147.465 185.869 145.906 186.972 144.203C184.265 140.363 181.875 136.337 179.483 132.31C178.062 129.915 176.64 127.52 175.151 125.163C174.809 124.623 174.483 124.065 174.155 123.506C173.537 122.451 172.916 121.389 172.188 120.433C169.876 117.393 167.279 114.481 163.861 112.714C163.911 114.136 164.154 115.396 164.408 116.708C164.502 117.195 164.598 117.689 164.685 118.202L165.875 126.512L167.715 145.094C167.936 147.073 168.238 149.046 168.54 151.02C168.942 153.648 169.344 156.276 169.554 158.918C169.871 162.903 169.785 166.881 169.653 170.873C169.311 181.215 167.798 191.606 164.299 201.379L160.696 210.164C160.659 210.244 160.622 210.324 160.584 210.404C159.834 212.014 159.047 213.703 157.931 215.088C153.339 210.219 149.951 204.075 146.734 198.24L146.635 198.061C138.701 183.669 132.309 168.802 126.796 153.331L120.164 133.589L141.749 157.099L142.38 155.846C142.138 155.601 141.951 155.368 141.747 155.092C141.415 154.87 141.089 154.437 140.79 154.04C140.657 153.863 140.529 153.693 140.408 153.551L136.862 149.512C135.09 147.546 133.255 145.621 131.419 143.694C127.526 139.609 123.624 135.514 120.284 130.998C119.418 129.827 118.947 128.77 118.507 127.391C117.074 122.906 115.443 117.276 116.023 112.565C116.214 111.019 117.021 109.118 117.751 107.74L117.896 107.469L115.136 109.249C114.389 109.801 113.744 110.522 113.116 111.225C112.96 111.4 112.805 111.573 112.65 111.742L108.377 116.367ZM104.437 120.362L103.667 120.85V122.131C103.67 123.555 103.561 124.999 103.451 126.442L103.451 126.442C103.371 127.508 103.29 128.573 103.255 129.63L103.01 147.85C103.011 148.453 102.986 149.103 102.961 149.772L102.961 149.772C102.898 151.432 102.83 153.206 103.148 154.656L111.181 157.839L115.149 159.188C115.351 159.25 115.551 159.3 115.75 159.35C116.299 159.487 116.827 159.619 117.303 159.979L109.682 165.283C109.26 165.582 108.82 165.878 108.375 166.177C107.159 166.995 105.908 167.836 104.901 168.829L104.905 169.153L105.719 169.937L106.247 169.73V169.73L105.718 169.937L105.714 169.959L109.566 175.528C113.646 181.662 148.987 234.475 150.737 235.319C149.874 234.127 149.076 232.829 148.283 231.539L148.283 231.539L148.282 231.538L148.282 231.538L148.282 231.538C147.799 230.751 147.317 229.967 146.822 229.211L138.363 216.448L116.034 183.441L110.037 174.529L107.437 170.769C107.373 170.676 107.303 170.58 107.233 170.482C106.92 170.05 106.573 169.572 106.498 169.069L106.471 168.792L106.471 168.792L118.283 159.838L117.828 159.536L117.828 159.536C116.531 158.871 115.095 158.374 113.674 157.882L113.674 157.882C112.97 157.638 112.27 157.396 111.593 157.135C110.756 156.813 109.921 156.465 109.083 156.116L109.083 156.116C107.44 155.432 105.789 154.744 104.109 154.243L104.437 120.362ZM90.4423 225.367L90.4425 225.367L89.3594 232.221C89.2855 232.64 89.2098 233.055 89.1345 233.469C88.7211 235.74 88.3178 237.954 88.289 240.297L88.2892 240.297C88.8985 244.005 87.5771 250.002 86.3305 255.66C85.4186 259.798 84.5468 263.754 84.5 266.5C84.1769 268.438 85.7326 268.674 87.763 268.981C88.875 269.149 90.1293 269.339 91.2954 269.842C90.6603 270.195 90.1137 270.306 89.4101 270.121L83.3542 268.421C84.0937 265.557 84.4929 262.639 84.8928 259.716L84.8934 259.712C84.9652 259.187 85.037 258.662 85.1108 258.138L87.7969 237.347L87.7967 237.347C87.6531 236.669 87.8823 235.576 88.084 234.614L88.084 234.614C88.1772 234.17 88.2644 233.753 88.3063 233.419L89.6531 223.269L89.653 223.268L90.8533 210.559C91.4589 200.396 90.7995 190.018 88.4668 180.094C87.9636 177.953 87.3148 175.847 86.6664 173.741L86.6664 173.741C86.3176 172.609 85.9689 171.476 85.6431 170.34C87.9438 174.547 89.3118 179.232 90.3629 183.891C91.3309 188.185 92.0683 192.419 92.3602 196.813C92.9991 206.449 91.8782 215.856 90.4423 225.367ZM176.812 233.565L176.922 233.561C178.073 233.528 179.162 233.497 180.302 233.73C180.693 234.055 180.904 234.634 181.092 235.15L181.092 235.152C181.137 235.273 181.179 235.391 181.223 235.501L178.287 235.647L173.881 235.737C174.19 235.505 174.489 235.253 174.789 235L174.79 234.999C175.428 234.461 176.07 233.92 176.812 233.565ZM210.506 286.599C210.512 286.601 210.518 286.603 210.523 286.605L210.535 286.61C210.556 286.618 210.57 286.626 210.581 286.636C210.601 286.655 210.612 286.682 210.635 286.736L210.635 286.737C210.65 286.774 210.672 286.825 210.705 286.895L210.237 287.143C207.592 286.979 204.933 287.073 202.281 287.166L202.279 287.166C201.489 287.194 200.701 287.222 199.914 287.243C199.659 287.25 199.328 287.274 198.959 287.3H198.959C197.769 287.386 196.18 287.5 195.454 287.167C195.345 287.117 195.264 287.025 195.183 286.934L195.183 286.934L195.183 286.934L195.183 286.934L195.183 286.934C195.143 286.888 195.102 286.843 195.059 286.802L195.223 286.448L196.506 286.158L199.116 268.561L205.689 268.569L207.487 280.408C207.511 280.533 207.535 280.658 207.559 280.785C207.583 280.913 207.607 281.042 207.631 281.171C207.945 282.841 208.276 284.601 208.939 286.13C209.358 286.371 209.755 286.435 210.214 286.509L210.214 286.509L210.299 286.523C210.342 286.54 210.378 286.554 210.408 286.565L210.437 286.575L210.464 286.585L210.481 286.59C210.49 286.594 210.498 286.596 210.506 286.599ZM201.156 260.768H201.156C200.772 260.795 200.443 260.819 200.204 260.829C198.937 260.947 198.391 261.037 197.496 261.964L197.633 262.223L204.432 262.185C204.598 262.178 204.767 262.179 204.936 262.18C205.548 262.184 206.157 262.187 206.612 261.779L206.554 261.004C205.737 260.443 202.886 260.645 201.156 260.768ZM173.757 251.392L182.804 251.333C183.471 251.367 183.866 251.472 184.33 251.955L184.101 252.262L182.771 252.361L175.389 252.48C175.139 252.48 174.874 252.488 174.601 252.495L174.6 252.496C173.736 252.521 172.797 252.548 172.039 252.34L171.88 251.955C172.354 251.504 172.868 251.464 173.467 251.417C173.562 251.409 173.658 251.402 173.757 251.392ZM175.299 253.059H175.3H175.3H175.3H175.3H175.301H175.301H175.301H175.301H175.301H175.302H175.302H175.302H175.302H175.302H175.303H175.303H175.303H175.303H175.304H175.304H175.304H175.304H175.304H175.305H175.305H175.305H175.305H175.305C176.071 253.079 176.839 253.1 177.614 253.096L182.157 252.963C182.272 252.959 182.39 252.954 182.508 252.949C183.373 252.912 184.302 252.873 185.028 253.332V253.929C184.789 254.028 184.627 254.051 184.366 254.057L174.818 254.105C174.663 254.105 174.459 254.112 174.227 254.119C173.343 254.149 172.061 254.191 171.59 253.89C171.493 253.827 171.413 253.743 171.333 253.659C171.292 253.616 171.251 253.573 171.208 253.534L171.491 253.068C172.773 252.992 174.034 253.026 175.299 253.059H175.299ZM197.847 262.826L204.415 262.831C204.583 262.833 204.766 262.83 204.957 262.828C205.971 262.817 207.235 262.802 208.012 263.264C208.016 263.307 208.02 263.348 208.025 263.386L208.033 263.462C208.074 263.825 208.093 263.988 207.892 264.374L207.225 264.466L199.857 264.396C199.769 264.394 199.675 264.393 199.575 264.392C199.508 264.392 199.439 264.392 199.368 264.392H199.367H199.366H199.366H199.365C198.572 264.39 197.543 264.388 196.986 264.064C196.957 264.047 196.931 264.033 196.909 264.02L196.908 264.02L196.907 264.02C196.821 263.971 196.784 263.949 196.763 263.917C196.748 263.891 196.743 263.859 196.734 263.802L196.733 263.801C196.73 263.776 196.725 263.746 196.718 263.709C196.713 263.68 196.706 263.647 196.698 263.609C196.696 263.601 196.694 263.592 196.692 263.583C197.079 263.104 197.227 263.051 197.732 262.868L197.847 262.826ZM148.336 267.09L148.249 267.613C149.188 268.273 150.237 268.251 151.335 268.227C151.578 268.222 151.824 268.217 152.071 268.219L157.823 268.254C157.992 268.25 158.215 268.255 158.467 268.261H158.468H158.469H158.47H158.471H158.472H158.473H158.474H158.475H158.476H158.477H158.478H158.479H158.48H158.481H158.482H158.483H158.484H158.485H158.486H158.487C159.45 268.281 160.83 268.309 161.303 267.951C161.313 267.869 161.324 267.798 161.334 267.734C161.384 267.403 161.405 267.268 161.191 266.908C159.802 266.544 158.109 266.6 156.537 266.652H156.537H156.537H156.537C156.016 266.67 155.508 266.687 155.029 266.688C154.585 266.689 154.079 266.669 153.542 266.649C151.767 266.582 149.657 266.503 148.336 267.09ZM90.7605 270.862L90.7912 270.851L90.8309 270.837C90.9697 270.787 91.0494 270.758 91.2419 270.762C91.8711 270.774 92.628 270.979 93.343 271.173C93.7009 271.27 94.0483 271.365 94.3639 271.431L110.808 275.371C111.037 275.437 111.316 275.505 111.621 275.579L111.621 275.579L111.622 275.579L111.622 275.579C112.711 275.843 114.117 276.185 114.643 276.793C112.965 277.449 93.5522 271.93 90.7605 270.862ZM154.049 268.921C153.185 268.935 152.341 268.95 151.544 268.938C151.329 268.943 151.108 268.943 150.883 268.943H150.883H150.882C150.067 268.942 149.211 268.942 148.467 269.194C148.223 269.586 148.225 269.813 148.227 270.199V270.2C148.228 270.27 148.228 270.344 148.227 270.426C148.265 270.447 148.297 270.465 148.325 270.481C148.339 270.49 148.352 270.497 148.364 270.505C148.376 270.512 148.386 270.518 148.396 270.524C148.506 270.591 148.532 270.607 148.716 270.625C149.966 270.747 151.271 270.699 152.568 270.652C153.387 270.622 154.203 270.592 155 270.605L159.506 270.807C159.603 270.807 159.727 270.812 159.863 270.817C160.232 270.832 160.69 270.85 160.932 270.775C161.025 270.746 161.094 270.672 161.162 270.597L161.162 270.597C161.18 270.578 161.197 270.559 161.215 270.541C161.232 270.523 161.249 270.507 161.267 270.491C161.274 270.446 161.281 270.403 161.289 270.362C161.298 270.311 161.307 270.264 161.316 270.219C161.382 269.887 161.42 269.694 161.173 269.338C159.018 268.836 156.453 268.88 154.049 268.921ZM157.448 273.227C157.129 273.222 156.555 273.223 155.83 273.225C152.771 273.234 147.028 273.25 146.395 272.808C146.378 272.703 146.362 272.632 146.35 272.58C146.336 272.516 146.328 272.481 146.334 272.448C146.342 272.409 146.37 272.374 146.433 272.296L146.476 272.242L146.511 272.199C147.011 271.562 147.953 271.513 148.746 271.472C148.817 271.468 148.886 271.464 148.954 271.46L148.994 271.458L149.055 271.454C151.848 271.266 154.658 271.334 157.455 271.401L157.775 271.409C158.091 271.417 158.428 271.412 158.774 271.407C159.569 271.396 160.405 271.384 161.117 271.521C161.574 271.61 162.075 271.854 162.405 272.185L162.529 272.344L162.372 272.715C161.661 272.934 160.995 273.08 160.255 273.165C159.752 273.059 158.96 273.12 158.266 273.175C157.964 273.198 157.681 273.22 157.448 273.227ZM198.851 286.266C198.66 286.268 198.464 286.278 198.267 286.288H198.268H198.268C198.464 286.278 198.66 286.268 198.851 286.266ZM173.826 256.43C174.626 256.423 175.339 256.416 175.732 256.468L180.747 256.387C181.187 256.388 181.694 256.413 182.229 256.439C183.679 256.51 185.338 256.592 186.438 256.219L186.467 255.921C186.328 255.824 186.195 255.749 186.054 255.669C186.021 255.651 185.988 255.632 185.954 255.612C185.702 255.469 185.55 255.245 185.393 255.014L185.357 254.961C185.338 254.932 185.318 254.904 185.298 254.875C184.01 254.565 182.571 254.604 181.194 254.641H181.194H181.193H181.193H181.192H181.191H181.191H181.19H181.189H181.189H181.188H181.187H181.187H181.186C180.791 254.652 180.401 254.663 180.022 254.665L170.477 254.834C170.065 255.148 169.982 255.464 169.862 255.915L169.845 255.979L169.831 256.033C170.302 256.461 172.236 256.444 173.826 256.43ZM196.718 265.088C198.318 264.975 199.957 265.001 201.583 265.028C202.236 265.039 202.888 265.049 203.534 265.051C203.969 265.052 204.424 265.041 204.889 265.03H204.89H204.891H204.892H204.892H204.893H204.894H204.895H204.895H204.896H204.897H204.898H204.898H204.899C206.42 264.993 208.045 264.954 209.425 265.317C210.32 265.552 210.645 266.117 211.039 266.803L211.039 266.803L211.039 266.803C211.124 266.952 211.213 267.105 211.311 267.263L208.459 267.456L197.673 267.432C197.411 267.431 197.09 267.445 196.744 267.46H196.744H196.743C195.829 267.499 194.741 267.547 194.111 267.346C194.022 267.317 193.96 267.243 193.898 267.168C193.867 267.131 193.836 267.094 193.802 267.062C193.845 266.67 193.887 266.434 194.118 266.1C194.665 265.312 195.796 265.189 196.672 265.093L196.718 265.088ZM173.868 238.424L182.391 238.402C182.687 238.642 183.038 238.631 183.406 238.62H183.407H183.407C183.455 238.619 183.504 238.618 183.553 238.617C183.608 238.616 183.664 238.615 183.719 238.617C183.719 238.655 183.716 238.695 183.713 238.736V238.737C183.705 238.865 183.696 239.002 183.754 239.106L188.072 239.294C188.292 239.165 188.35 238.96 188.415 238.734L188.415 238.734C188.435 238.664 188.455 238.592 188.481 238.52L188.796 238.146L188.643 237.77C187.81 237.44 186.965 237.332 186.114 237.224C185.599 237.158 185.083 237.092 184.565 236.977C184.15 236.884 183.753 236.749 183.357 236.614C182.722 236.398 182.089 236.183 181.393 236.144C177.793 235.948 173.941 236.256 170.405 236.89C170.163 236.934 169.929 236.968 169.703 237.001L169.702 237.002L169.701 237.002L169.701 237.002C168.731 237.144 167.889 237.268 167.049 237.994L167.178 238.277C168.928 238.565 170.746 238.511 172.535 238.458C172.982 238.445 173.427 238.432 173.868 238.424ZM155.42 243.429L155.503 243.396C156.048 243.31 156.42 243.31 156.904 243.553C157.041 244.221 156.798 244.952 156.574 245.626L156.574 245.627C156.52 245.789 156.468 245.948 156.422 246.102L158.854 246.439C159.024 247.224 159.021 248.415 158.615 249.086C158.088 249.238 157.57 249.183 157.038 249.126L157.037 249.126L157.036 249.126L157.035 249.126C156.944 249.116 156.853 249.107 156.761 249.098C156.333 249.306 156.398 249.9 156.468 250.531V250.531C156.531 251.105 156.598 251.709 156.298 252.079L154.491 252.107L153.425 252.071C153.124 251.621 153.213 250.487 153.278 249.658L153.278 249.658C153.296 249.429 153.312 249.224 153.318 249.063L150.421 248.943C150.419 248.9 150.416 248.856 150.414 248.81C150.412 248.78 150.411 248.75 150.409 248.718C150.366 247.937 150.307 246.859 150.737 246.311L152.666 246.498L152.661 243.475L155.42 243.429ZM161.52 273.912L162.202 273.958C163.132 274.087 164.231 274.995 164.77 275.72L164.771 275.721C165.058 276.108 165.108 276.174 165.029 276.625C164.333 276.911 163.595 276.911 162.854 276.911C162.707 276.911 162.56 276.911 162.413 276.913L158.213 276.94C156.998 276.942 155.758 276.967 154.508 276.992H154.508H154.507H154.507H154.506H154.505H154.505H154.504H154.503H154.502H154.502H154.501H154.5H154.499H154.498H154.498C150.849 277.064 147.107 277.138 143.604 276.661L144.729 275.231C145.041 274.894 145.658 274.277 146.079 274.113C146.846 273.814 148.181 273.855 149.264 273.889H149.264C149.617 273.899 149.943 273.909 150.213 273.907L161.52 273.912ZM181.09 257.1L173.012 257.024C172.748 257.027 172.399 257.008 172.02 256.988L172.019 256.988C171.153 256.942 170.131 256.887 169.6 257.062C169.333 257.15 168.676 257.867 168.258 258.322C168.141 258.449 168.043 258.556 167.978 258.623C167.748 258.857 167.64 259.061 167.537 259.37L167.682 259.741C168.665 260.102 169.856 260.119 170.967 260.134H170.967H170.968H170.968H170.968H170.968H170.968H170.968H170.968H170.969H170.969H170.969H170.969C171.285 260.139 171.595 260.143 171.891 260.155L182.827 260.268C183.262 260.263 183.751 260.278 184.264 260.293C185.817 260.34 187.595 260.394 188.792 259.926L189.004 259.555C188.541 258.661 187.744 257.786 186.897 257.238L184.56 257.081C183.814 257.21 182.929 257.171 182.091 257.133H182.091C181.745 257.118 181.406 257.103 181.09 257.1ZM177.163 220.955C177.217 220.94 177.245 220.932 177.273 220.931C177.303 220.929 177.334 220.935 177.398 220.947C177.436 220.954 177.486 220.963 177.555 220.975C177.69 220.997 177.765 221.011 177.814 221.02L177.814 221.02L177.815 221.021C177.849 221.027 177.871 221.031 177.894 221.034C177.931 221.04 177.969 221.042 178.073 221.049L178.073 221.049H178.073L178.148 221.053C179.085 221.112 179.64 221.576 180.29 222.12L180.29 222.12C180.426 222.234 180.565 222.35 180.713 222.467C180.285 223.454 179.992 224.154 180.085 225.264C180.519 225.645 181.638 225.583 182.471 225.537C182.691 225.525 182.892 225.514 183.055 225.512L183.04 228.824L179.958 228.713C179.955 229.03 179.958 229.353 179.961 229.68L179.961 229.682C179.97 230.608 179.979 231.56 179.838 232.442L179.282 232.579L176.163 232.407L176.437 228.897L173.266 228.859L173.177 225.317L176.481 225.576L176.406 224.8C176.346 223.968 176.301 223.412 175.899 222.661L175.801 222.483L175.908 222.113C176.255 222.039 176.548 221.947 176.872 221.806L176.993 221.001C177.07 220.982 177.123 220.967 177.162 220.955L177.163 220.955ZM201.476 245.097L202.452 245.009C203.047 245.032 203.669 245.459 204.01 245.931C204.246 246.258 204.326 246.637 204.262 247.031C204.157 247.671 203.724 248.156 203.221 248.526L203.09 248.619C203.556 248.975 204.126 249.191 204.709 249.414C205.359 249.662 206.027 249.916 206.59 250.376C207.907 251.453 208.501 253.294 208.586 254.946C208.658 256.339 207.859 258.275 206.875 259.291C206.206 259.982 205.162 260.026 204.238 260.064L204.236 260.065L204.233 260.065L204.064 260.072L204.013 260.074L203.94 260.078L203.888 260.081L198.518 260.102L198.478 260.066C198.06 259.688 197.631 259.301 197.292 258.848C196.068 257.216 195.667 255.253 196.052 253.253C196.34 251.759 198.15 249.801 199.486 249.07C199.684 248.962 199.883 248.884 200.082 248.806L200.082 248.806L200.082 248.806L200.083 248.806C200.344 248.704 200.605 248.602 200.857 248.434C200.41 247.553 200.288 247.197 200.366 246.209C200.692 245.608 200.88 245.435 201.476 245.097ZM183.753 239.106L188.072 239.294C185.833 242.704 184.237 246.952 183.295 250.894L176.079 250.891C175.809 250.883 175.53 250.882 175.246 250.881C174.433 250.878 173.587 250.874 172.828 250.712C171.719 246.589 169.84 242.775 167.651 239.13L183.753 239.106ZM154.865 252.828L154.266 252.851C154.113 252.869 153.932 252.881 153.738 252.895C153.199 252.932 152.564 252.975 152.19 253.154C151.823 253.329 151.332 253.973 150.947 254.477L150.947 254.478C150.812 254.655 150.691 254.814 150.592 254.93C150.576 254.949 150.542 254.993 150.499 255.048L150.498 255.05C150.366 255.221 150.147 255.504 150.083 255.531C149.827 255.639 149.383 255.677 148.991 255.71C148.806 255.726 148.633 255.741 148.496 255.761L144.484 256.329L149.396 266.104L155.603 266.04L160.837 265.999C161.188 264.793 161.732 263.714 162.286 262.616C162.455 262.279 162.626 261.941 162.792 261.596L165.062 256.337L158.556 255.477C158.629 254.814 158.599 254.584 158.151 254.066C157.191 252.952 156.276 252.833 154.865 252.828ZM191.255 297.242L191.255 297.242C191.156 297.138 191.057 297.034 190.96 296.933C190.476 296.432 190.364 296.315 190.295 295.607C190.726 294.41 191.74 293.59 192.754 292.771C193.666 292.034 194.576 291.299 195.059 290.289C195.367 289.644 195.434 288.869 195.495 288.144V288.144C195.505 288.027 195.515 287.911 195.526 287.797L209.986 287.799C210.081 289.289 210.183 290.571 211.343 291.629C211.791 292.038 212.374 292.422 212.978 292.82C214.484 293.811 216.127 294.893 216.184 296.69C216.207 297.439 215.725 298.316 215.291 298.897C214.454 299.285 213.522 299.318 212.594 299.352H212.594C212.06 299.371 211.527 299.39 211.014 299.476C209.998 299.265 208.666 299.337 207.433 299.403C206.878 299.433 206.343 299.462 205.866 299.464L193.638 299.295C192.748 298.811 191.971 297.995 191.255 297.243L191.255 297.242ZM170.161 287.824C170.174 287.875 170.19 287.933 170.206 288.007L175.709 288.024C175.975 288.025 176.258 288.016 176.547 288.005C177.175 287.983 177.83 287.96 178.396 288.047C179.352 288.024 180.337 288.05 181.327 288.077C183.042 288.123 184.773 288.169 186.402 287.962L186.441 287.729L185.719 287.397C183.89 285.3 182.261 265.305 182.071 261.392L174.024 261.529C173.574 267.743 173.077 273.86 172.094 280.017C172.041 280.347 171.99 280.691 171.937 281.044C171.622 283.156 171.258 285.594 170.235 287.332C170.093 287.574 170.112 287.644 170.161 287.824L170.161 287.824ZM145.376 301.435C145.357 301.385 145.347 301.361 145.348 301.337C145.348 301.314 145.358 301.292 145.376 301.247C145.392 301.21 145.414 301.157 145.443 301.075L147.201 300.399C147.734 299.227 148.051 297.821 148.346 296.512C148.407 296.244 148.466 295.981 148.526 295.724C149.887 289.925 150.428 283.965 150.795 278.032L159.136 277.984C159.146 282.809 159.943 287.649 160.826 292.382C160.893 292.744 160.959 293.115 161.025 293.492C161.491 296.124 162.005 299.026 163.561 301.129L163.688 300.987C163.933 298.878 165.301 297.286 166.661 295.704C167.338 294.916 168.014 294.13 168.547 293.283C169.408 291.915 169.781 290.645 170.08 289.069L179.718 289.104C180.16 289.103 180.611 289.109 181.065 289.116C182.416 289.136 183.801 289.157 185.1 288.957L185.858 289.027C186.065 289.376 186.106 289.801 186.147 290.223L186.147 290.223C186.168 290.447 186.19 290.67 186.236 290.88C186.386 291.569 186.697 292.294 187.013 292.922C187.583 294.053 188.754 295.539 189.634 296.467C189.93 296.78 190.235 297.059 190.537 297.335C191.018 297.774 191.492 298.208 191.917 298.764C195.084 304.146 191.563 304.146 189.322 304.146H180.326C179.102 304.145 177.816 304.195 176.508 304.246C173.136 304.377 169.611 304.515 166.585 303.801C166.112 303.488 165.987 303.15 165.807 302.666L165.766 302.555L165.518 301.892L165.429 301.644C164.49 301.512 163.389 301.571 162.329 301.627H162.329L162.328 301.627L162.325 301.628C161.783 301.657 161.251 301.685 160.758 301.687L148.394 301.633L145.424 301.563C145.404 301.507 145.388 301.466 145.376 301.435ZM123.842 278.322C122.465 278.019 120.614 277.612 119.724 277.906C114.319 281.373 111.104 289.075 109.777 295.117C108.367 301.545 108.177 309.227 111.181 315.242L126.641 317.239L126.879 316.83L126.867 316.785C126.293 314.619 125.728 312.487 125.483 310.252C124.7 303.103 126.124 294.656 129.721 288.367C131.532 285.199 133.59 282.465 136.877 280.717C134.073 280.053 131.205 279.585 128.346 279.118L128.345 279.118C127.198 278.931 126.051 278.743 124.911 278.544C124.623 278.494 124.253 278.412 123.842 278.322ZM191.956 162.297L191.543 166.595C191.58 166.532 191.617 166.467 191.653 166.401C191.787 166.162 191.923 165.919 192.124 165.737L192.124 165.737C191.923 165.919 191.787 166.162 191.653 166.402C191.617 166.467 191.581 166.532 191.543 166.596L185.414 199.874L183.248 209.694C183.07 210.44 182.87 211.198 182.669 211.963L182.668 211.965L182.668 211.965C182.122 214.038 181.563 216.16 181.384 218.234C182.015 217.237 182.368 216.018 182.705 214.849C182.791 214.553 182.876 214.26 182.964 213.975C184.378 209.397 185.429 204.733 186.482 200.062L186.482 200.061L186.522 199.884C186.628 199.413 186.735 198.944 186.843 198.475L186.845 198.465C187.36 196.216 187.871 193.986 188.205 191.695L192.362 167.202L192.362 167.201C192.805 165.742 192.968 163.988 193.115 162.42L193.115 162.42L193.115 162.419C193.133 162.224 193.151 162.032 193.169 161.843L178.953 153.83C179.785 152.772 180.702 151.888 181.695 150.983L181.201 150.589L177.963 153.804L181.159 155.931C181.518 156.149 182.588 156.761 183.923 157.525L183.923 157.525L183.924 157.526L183.924 157.526C187.123 159.355 191.842 162.055 191.956 162.297Z" fill="#0C0C0C"/>
</svg>
